<svg width="74" height="60" viewBox="0 0 74 60" fill="none" xmlns="http://www.w3.org/2000/svg">
<g clip-path="url(#clip0_468_22)">
<path d="M31.6458 0H26.5417C23.1602 0 20.4167 2.51953 20.4167 5.625V18.75C20.4167 22.8867 24.0789 26.25 28.5833 26.25H44.9167C49.4211 26.25 53.0833 22.8867 53.0833 18.75V5.625C53.0833 2.51953 50.3398 0 46.9583 0H41.8542V9.375C41.8542 10.4062 40.9354 11.25 39.8125 11.25H33.6875C32.5646 11.25 31.6458 10.4062 31.6458 9.375V0ZM8.16667 30C3.66224 30 0 33.3633 0 37.5V52.5C0 56.6367 3.66224 60 8.16667 60H28.5833C33.0878 60 36.75 56.6367 36.75 52.5V37.5C36.75 33.3633 33.0878 30 28.5833 30H23.4792V39.375C23.4792 40.4062 22.5604 41.25 21.4375 41.25H15.3125C14.1896 41.25 13.2708 40.4062 13.2708 39.375V30H8.16667ZM44.9167 60H65.3333C69.8378 60 73.5 56.6367 73.5 52.5V37.5C73.5 33.3633 69.8378 30 65.3333 30H60.2292V39.375C60.2292 40.4062 59.3104 41.25 58.1875 41.25H52.0625C50.9396 41.25 50.0208 40.4062 50.0208 39.375V30H44.9167C43.0026 30 41.2417 30.5977 39.8508 31.6172C40.476 32.8359 40.8333 34.1953 40.8333 35.625V54.375C40.8333 55.8047 40.476 57.1641 39.8508 58.3828C41.2417 59.4023 43.0026 60 44.9167 60Z" fill="#46D0F2"/>
</g>
<defs>
<clipPath id="clip0_468_22">
<rect width="73.5" height="60" fill="white"/>
</clipPath>
</defs>
</svg>
