<svg width="60" height="60" viewBox="0 0 60 60" fill="none" xmlns="http://www.w3.org/2000/svg">
<g clip-path="url(#clip0_493_20)">
<path d="M51.6797 6.90234L53.0977 8.32031C54.1992 9.42188 54.1992 11.2031 53.0977 12.293L49.6875 15.7148L44.2852 10.3125L47.6953 6.90234C48.7969 5.80078 50.5781 5.80078 51.668 6.90234H51.6797ZM24.5859 30.0234L40.3125 14.2852L45.7148 19.6875L29.9766 35.4141C29.6367 35.7539 29.2148 36 28.7578 36.1289L21.9023 38.0859L23.8594 31.2305C23.9883 30.7734 24.2344 30.3516 24.5742 30.0117L24.5859 30.0234ZM43.7227 2.92969L20.6016 26.0391C19.582 27.0586 18.8438 28.3125 18.457 29.6836L15.1055 41.4023C14.8242 42.3867 15.0938 43.4414 15.8203 44.168C16.5469 44.8945 17.6016 45.1641 18.5859 44.8828L30.3047 41.5312C31.6875 41.1328 32.9414 40.3945 33.9492 39.3867L57.0703 16.2773C60.3633 12.9844 60.3633 7.64062 57.0703 4.34766L55.6523 2.92969C52.3594 -0.363281 47.0156 -0.363281 43.7227 2.92969ZM10.3125 7.5C4.61719 7.5 0 12.1172 0 17.8125V49.6875C0 55.3828 4.61719 60 10.3125 60H42.1875C47.8828 60 52.5 55.3828 52.5 49.6875V36.5625C52.5 35.0039 51.2461 33.75 49.6875 33.75C48.1289 33.75 46.875 35.0039 46.875 36.5625V49.6875C46.875 52.2773 44.7773 54.375 42.1875 54.375H10.3125C7.72266 54.375 5.625 52.2773 5.625 49.6875V17.8125C5.625 15.2227 7.72266 13.125 10.3125 13.125H23.4375C24.9961 13.125 26.25 11.8711 26.25 10.3125C26.25 8.75391 24.9961 7.5 23.4375 7.5H10.3125Z" fill="#46D0F2"/>
</g>
<defs>
<clipPath id="clip0_493_20">
<rect width="60" height="60" fill="white"/>
</clipPath>
</defs>
</svg>
