<svg width="60" height="60" viewBox="0 0 60 60" fill="none" xmlns="http://www.w3.org/2000/svg">
<g clip-path="url(#clip0_507_280)">
<path d="M8.57142 42.8571V34.2857C8.57142 33.1491 9.02295 32.059 9.82668 31.2552C10.6304 30.4515 11.7205 30 12.8571 30H47.1429C48.2795 30 49.3696 30.4515 50.1733 31.2552C50.977 32.059 51.4286 33.1491 51.4286 34.2857V42.8571M30 17.1428V42.8571M23.5714 8.57142V12.8571C23.5714 13.9938 24.023 15.0839 24.8267 15.8876C25.6304 16.6913 26.7205 17.1428 27.8571 17.1428H32.1429C33.2795 17.1428 34.3696 16.6913 35.1733 15.8876C35.977 15.0839 36.4286 13.9938 36.4286 12.8571V8.57142C36.4286 7.43478 35.977 6.34469 35.1733 5.54096C34.3696 4.73723 33.2795 4.28571 32.1429 4.28571H27.8571C26.7205 4.28571 25.6304 4.73723 24.8267 5.54096C24.023 6.34469 23.5714 7.43478 23.5714 8.57142ZM23.5714 47.1428V51.4286C23.5714 52.5652 24.023 53.6553 24.8267 54.459C25.6304 55.2627 26.7205 55.7143 27.8571 55.7143H32.1429C33.2795 55.7143 34.3696 55.2627 35.1733 54.459C35.977 53.6553 36.4286 52.5652 36.4286 51.4286V47.1428C36.4286 46.0062 35.977 44.9161 35.1733 44.1124C34.3696 43.3087 33.2795 42.8571 32.1429 42.8571H27.8571C26.7205 42.8571 25.6304 43.3087 24.8267 44.1124C24.023 44.9161 23.5714 46.0062 23.5714 47.1428ZM2.14285 47.1428V51.4286C2.14285 52.5652 2.59438 53.6553 3.39811 54.459C4.20184 55.2627 5.29192 55.7143 6.42857 55.7143H10.7143C11.8509 55.7143 12.941 55.2627 13.7447 54.459C14.5485 53.6553 15 52.5652 15 51.4286V47.1428C15 46.0062 14.5485 44.9161 13.7447 44.1124C12.941 43.3087 11.8509 42.8571 10.7143 42.8571H6.42857C5.29192 42.8571 4.20184 43.3087 3.39811 44.1124C2.59438 44.9161 2.14285 46.0062 2.14285 47.1428ZM45 47.1428V51.4286C45 52.5652 45.4515 53.6553 46.2553 54.459C47.059 55.2627 48.1491 55.7143 49.2857 55.7143H53.5714C54.7081 55.7143 55.7982 55.2627 56.6019 54.459C57.4056 53.6553 57.8571 52.5652 57.8571 51.4286V47.1428C57.8571 46.0062 57.4056 44.9161 56.6019 44.1124C55.7982 43.3087 54.7081 42.8571 53.5714 42.8571H49.2857C48.1491 42.8571 47.059 43.3087 46.2553 44.1124C45.4515 44.9161 45 46.0062 45 47.1428Z" stroke="#46D0F2" stroke-width="5" stroke-linecap="round" stroke-linejoin="round"/>
</g>
<defs>
<clipPath id="clip0_507_280">
<rect width="60" height="60" fill="white"/>
</clipPath>
</defs>
</svg>
