<svg width="28" height="28" viewBox="0 0 28 28" fill="none" xmlns="http://www.w3.org/2000/svg">
<path d="M15.1993 2.33444C16.0507 2.33118 16.902 2.33973 17.7531 2.36011L17.9795 2.36828C18.2408 2.37761 18.4986 2.38928 18.8101 2.40328C20.0515 2.46161 20.8985 2.65761 21.6416 2.94578C22.4116 3.24211 23.0603 3.64344 23.709 4.29211C24.3021 4.87498 24.7611 5.58005 25.0541 6.35828C25.3423 7.10144 25.5383 7.94961 25.5966 9.19094C25.6106 9.50128 25.6223 9.76028 25.6316 10.0216L25.6386 10.2479C25.6594 11.0987 25.6683 11.9496 25.6655 12.8006L25.6666 13.6709V15.1993C25.6695 16.0506 25.6606 16.902 25.6398 17.7531L25.6328 17.9794C25.6235 18.2408 25.6118 18.4986 25.5978 18.8101C25.5395 20.0514 25.3411 20.8984 25.0541 21.6416C24.7621 22.4207 24.3029 23.1263 23.709 23.7089C23.1256 24.302 22.4202 24.761 21.6416 25.0541C20.8985 25.3423 20.0515 25.5383 18.8101 25.5966C18.4986 25.6106 18.2408 25.6223 17.9795 25.6316L17.7531 25.6386C16.902 25.6593 16.0507 25.6683 15.1993 25.6654L14.329 25.6666H12.8018C11.9505 25.6695 11.0991 25.6605 10.248 25.6398L10.0216 25.6328C9.74469 25.6227 9.4678 25.6111 9.19098 25.5978C7.94965 25.5394 7.10265 25.3411 6.35831 25.0541C5.57978 24.7617 4.87459 24.3026 4.29215 23.7089C3.69837 23.1259 3.23891 22.4204 2.94581 21.6416C2.65765 20.8984 2.46165 20.0514 2.40331 18.8101C2.39032 18.5333 2.37865 18.2564 2.36831 17.9794L2.36248 17.7531C2.34097 16.902 2.33125 16.0506 2.33331 15.1993V12.8006C2.33006 11.9496 2.33862 11.0987 2.35898 10.2479L2.36715 10.0216C2.37648 9.76028 2.38815 9.50128 2.40215 9.19094C2.46048 7.94844 2.65648 7.10261 2.94465 6.35828C3.23792 5.57967 3.69827 4.8748 4.29331 4.29328C4.87536 3.69915 5.5801 3.23928 6.35831 2.94578C7.10265 2.65761 7.94848 2.46161 9.19098 2.40328L10.0216 2.36828L10.248 2.36244C11.0987 2.34095 11.9497 2.33122 12.8006 2.33328L15.1993 2.33444ZM14 8.16661C12.4529 8.16661 10.9692 8.78119 9.87519 9.87515C8.78123 10.9691 8.16665 12.4528 8.16665 13.9999C8.16665 15.547 8.78123 17.0308 9.87519 18.1247C10.9692 19.2187 12.4529 19.8333 14 19.8333C15.5471 19.8333 17.0308 19.2187 18.1248 18.1247C19.2187 17.0308 19.8333 15.547 19.8333 13.9999C19.8333 12.4528 19.2187 10.9691 18.1248 9.87515C17.0308 8.78119 15.5471 8.16661 14 8.16661ZM14 10.4999C14.4596 10.4999 14.9147 10.5903 15.3394 10.7661C15.7641 10.942 16.15 11.1997 16.475 11.5247C16.8001 11.8496 17.058 12.2354 17.2339 12.66C17.4099 13.0846 17.5005 13.5397 17.5006 13.9994C17.5006 14.459 17.4102 14.9141 17.2344 15.3388C17.0585 15.7635 16.8008 16.1493 16.4759 16.4744C16.1509 16.7995 15.7651 17.0573 15.3405 17.2333C14.9159 17.4093 14.4608 17.4999 14.0011 17.4999C13.0729 17.4999 12.1827 17.1312 11.5263 16.4748C10.8699 15.8184 10.5011 14.9282 10.5011 13.9999C10.5011 13.0717 10.8699 12.1814 11.5263 11.5251C12.1827 10.8687 13.0729 10.4999 14.0011 10.4999M20.1261 6.41661C19.7498 6.43167 19.3938 6.59178 19.1329 6.86341C18.8719 7.13503 18.7261 7.4971 18.7261 7.87378C18.7261 8.25045 18.8719 8.61252 19.1329 8.88414C19.3938 9.15577 19.7498 9.31588 20.1261 9.33094C20.5129 9.33094 20.8839 9.1773 21.1573 8.90381C21.4308 8.63032 21.5845 8.25938 21.5845 7.87261C21.5845 7.48584 21.4308 7.1149 21.1573 6.84141C20.8839 6.56792 20.5129 6.41428 20.1261 6.41428" fill="#E0E0E0"/>
</svg>
