<svg width="24" height="24" viewBox="0 0 24 24" fill="none" xmlns="http://www.w3.org/2000/svg">
<path d="M6 12.5V10C6 9.46957 6.21071 8.96086 6.58579 8.58579C6.96086 8.21071 7.46957 8 8 8C8.53043 8 9.03914 8.21071 9.41421 8.58579C9.78929 8.96086 10 9.46957 10 10V11.4M10 11V9C10 8.46957 10.2107 7.96086 10.5858 7.58579C10.9609 7.21071 11.4696 7 12 7C12.5304 7 13.0391 7.21071 13.4142 7.58579C13.7893 7.96086 14 8.46957 14 9V11M14 10.5V5C14 4.46957 14.2107 3.96086 14.5858 3.58579C14.9609 3.21071 15.4696 3 16 3C16.5304 3 17.0391 3.21071 17.4142 3.58579C17.7893 3.96086 18 4.46957 18 5V14" stroke="#46D0F2" stroke-width="2" stroke-linecap="round" stroke-linejoin="round"/>
<path d="M16.9999 15L18.7599 13.24C19.1397 12.8946 19.6379 12.7085 20.1511 12.7202C20.6644 12.7319 21.1535 12.9406 21.5172 13.303C21.8809 13.6653 22.0912 14.1537 22.1048 14.6669C22.1183 15.1802 21.934 15.6789 21.5899 16.06L17.9899 19.66C16.4999 21.14 14.7999 22 11.9999 22H9.9999C7.87817 22 5.84333 21.1571 4.34304 19.6569C2.84275 18.1566 1.9999 16.1217 1.9999 14V7C1.9999 6.46957 2.21061 5.96086 2.58568 5.58579C2.96076 5.21071 3.46946 5 3.9999 5C4.53033 5 5.03904 5.21071 5.41411 5.58579C5.78918 5.96086 5.9999 6.46957 5.9999 7V12" stroke="#46D0F2" stroke-width="2" stroke-linecap="round" stroke-linejoin="round"/>
</svg>
