<svg width="24" height="24" viewBox="0 0 24 24" fill="none" xmlns="http://www.w3.org/2000/svg">
<path d="M5.99966 4H8.99966C8.99966 4 8.99966 7 11.9997 7C14.9997 7 14.9997 4 14.9997 4H17.9997M17.9997 11V19.4C17.9997 19.5591 17.9365 19.7117 17.8239 19.8243C17.7114 19.9368 17.5588 20 17.3997 20H6.59966C6.44053 20 6.28792 19.9368 6.1754 19.8243C6.06288 19.7117 5.99966 19.5591 5.99966 19.4V11M17.9997 4L22.4427 5.777C22.5904 5.83615 22.7086 5.95155 22.7712 6.09783C22.8338 6.24411 22.8358 6.40927 22.7767 6.557L21.1507 10.623C21.1061 10.7343 21.0292 10.8297 20.93 10.8969C20.8307 10.9641 20.7135 11 20.5937 11H17.9997M5.99966 4L1.55666 5.777C1.40894 5.83615 1.29076 5.95155 1.22813 6.09783C1.16549 6.24411 1.16353 6.40927 1.22266 6.557L2.84866 10.623C2.89322 10.7343 2.97009 10.8297 3.06937 10.8969C3.16865 10.9641 3.28578 11 3.40566 11H5.99966" stroke="#46D0F2" stroke-width="1.5" stroke-linecap="round" stroke-linejoin="round"/>
</svg>
