<svg width="25" height="24" viewBox="0 0 25 24" fill="none" xmlns="http://www.w3.org/2000/svg">
<path d="M21 3.83056C21 3.70853 20.9766 3.588 20.9317 3.47755C20.8867 3.3671 20.8212 3.26943 20.7398 3.1915C20.6584 3.11356 20.5632 3.05727 20.4608 3.02662C20.3584 2.99598 20.2515 2.99173 20.1475 3.01418L8.62752 5.50652C8.46245 5.54218 8.31337 5.64329 8.20608 5.79237C8.09879 5.94146 8.04004 6.12912 8.04 6.3229V15.4161C7.48568 15.0774 6.86721 14.9027 6.24 14.9076C5.40096 14.9076 4.61376 15.2067 4.0224 15.7273C3.42912 16.2479 3 17.0278 3 17.9538C3 18.8799 3.42912 19.6597 4.02144 20.1803C4.61376 20.7009 5.40096 21 6.24 21C7.07904 21 7.86624 20.7009 8.4576 20.1803C9.03936 19.6708 9.46272 18.9109 9.47904 18.0092L9.48 17.9771V11.1636L19.56 8.93709V12.9237C19.0057 12.5851 18.3872 12.4104 17.76 12.4153C16.921 12.4153 16.1338 12.7144 15.5424 13.235C14.9491 13.7556 14.52 14.5354 14.52 15.4615C14.52 16.3875 14.9491 17.1673 15.5414 17.688C16.1338 18.2086 16.921 18.5077 17.76 18.5077C18.599 18.5077 19.3862 18.2086 19.9776 17.688C20.5594 17.1784 20.9827 16.4185 21 15.5169V3.83056ZM19.56 15.4615C19.56 15.7583 19.4256 16.0862 19.1059 16.3676C18.7862 16.6478 18.313 16.8461 17.76 16.8461C17.207 16.8461 16.7338 16.6478 16.4141 16.3676C16.0954 16.0862 15.96 15.7583 15.96 15.4615C15.96 15.1646 16.0944 14.8367 16.4141 14.5554C16.7338 14.2751 17.207 14.0768 17.76 14.0768C18.313 14.0768 18.7862 14.2751 19.1059 14.5554C19.4246 14.8367 19.56 15.1646 19.56 15.4615ZM7.58592 17.0477C7.90464 17.3291 8.04 17.6569 8.04 17.9538C8.04 18.2507 7.9056 18.5786 7.58592 18.8599C7.26624 19.1402 6.792 19.3384 6.24 19.3384C5.688 19.3384 5.21376 19.1402 4.89408 18.8599C4.57536 18.5786 4.44 18.2507 4.44 17.9538C4.44 17.6569 4.5744 17.3291 4.89408 17.0477C5.21376 16.7675 5.688 16.5692 6.24 16.5692C6.792 16.5692 7.26624 16.7675 7.58592 17.0477ZM19.56 7.24451L9.48 9.471V7.01189L19.56 4.83193V7.24451Z" fill="#F7AA00"/>
</svg>
