<svg width="307" height="23" viewBox="0 0 307 23" fill="none" xmlns="http://www.w3.org/2000/svg">
<path d="M297.933 17.0002V15.7642H299.169V17.0002H297.933Z" fill="#E0E0E0"/>
<path d="M293.982 17.12C293.23 17.12 292.63 16.948 292.182 16.604C291.734 16.252 291.478 15.756 291.414 15.116H292.338C292.394 15.508 292.566 15.808 292.854 16.016C293.142 16.224 293.526 16.328 294.006 16.328C294.43 16.328 294.762 16.248 295.002 16.088C295.242 15.928 295.362 15.7 295.362 15.404C295.362 15.196 295.294 15.016 295.158 14.864C295.022 14.704 294.75 14.572 294.342 14.468L293.358 14.216C292.798 14.072 292.378 13.852 292.098 13.556C291.818 13.252 291.678 12.892 291.678 12.476C291.678 11.948 291.874 11.532 292.266 11.228C292.658 10.916 293.19 10.76 293.862 10.76C294.526 10.76 295.066 10.92 295.482 11.24C295.898 11.56 296.134 12.004 296.19 12.572H295.266C295.21 12.244 295.058 11.992 294.81 11.816C294.562 11.64 294.234 11.552 293.826 11.552C293.434 11.552 293.13 11.628 292.914 11.78C292.698 11.924 292.59 12.132 292.59 12.404C292.59 12.612 292.666 12.792 292.818 12.944C292.978 13.096 293.242 13.224 293.61 13.328L294.57 13.592C295.138 13.744 295.566 13.976 295.854 14.288C296.142 14.6 296.286 14.976 296.286 15.416C296.286 15.952 296.082 16.372 295.674 16.676C295.266 16.972 294.702 17.12 293.982 17.12Z" fill="#E0E0E0"/>
<path d="M286.722 17.12C286.122 17.12 285.594 16.98 285.138 16.7C284.682 16.42 284.326 16.04 284.07 15.56C283.822 15.072 283.698 14.524 283.698 13.916C283.698 13.3 283.826 12.756 284.082 12.284C284.338 11.812 284.69 11.44 285.138 11.168C285.594 10.896 286.122 10.76 286.722 10.76C287.33 10.76 287.858 10.896 288.306 11.168C288.762 11.44 289.114 11.812 289.362 12.284C289.618 12.756 289.746 13.3 289.746 13.916C289.746 14.524 289.618 15.072 289.362 15.56C289.114 16.04 288.762 16.42 288.306 16.7C287.858 16.98 287.33 17.12 286.722 17.12ZM286.722 16.304C287.138 16.304 287.498 16.204 287.802 16.004C288.106 15.796 288.342 15.512 288.51 15.152C288.678 14.792 288.762 14.376 288.762 13.904C288.762 13.2 288.574 12.636 288.198 12.212C287.83 11.788 287.338 11.576 286.722 11.576C286.114 11.576 285.622 11.788 285.246 12.212C284.87 12.636 284.682 13.2 284.682 13.904C284.682 14.376 284.766 14.792 284.934 15.152C285.102 15.512 285.338 15.796 285.642 16.004C285.954 16.204 286.314 16.304 286.722 16.304Z" fill="#E0E0E0"/>
<path d="M280.632 17.0001V15.5721L280.752 15.6081C280.6 16.0721 280.32 16.4401 279.912 16.7121C279.512 16.9841 279.032 17.1201 278.472 17.1201C277.92 17.1201 277.436 16.9881 277.02 16.7241C276.612 16.4601 276.292 16.0921 276.06 15.6201C275.836 15.1481 275.724 14.5961 275.724 13.9641C275.724 13.3241 275.84 12.7641 276.072 12.2841C276.304 11.8041 276.628 11.4321 277.044 11.1681C277.46 10.9041 277.948 10.7721 278.508 10.7721C279.084 10.7721 279.568 10.9121 279.96 11.1921C280.352 11.4721 280.62 11.8681 280.764 12.3801L280.572 12.4041V8.36011H281.532V17.0001H280.632ZM278.652 16.2801C279.268 16.2801 279.748 16.0721 280.092 15.6561C280.444 15.2321 280.62 14.6561 280.62 13.9281C280.62 13.2161 280.444 12.6521 280.092 12.2361C279.74 11.8201 279.26 11.6121 278.652 11.6121C278.044 11.6121 277.568 11.8201 277.224 12.2361C276.88 12.6521 276.708 13.2281 276.708 13.9641C276.708 14.6841 276.88 15.2521 277.224 15.6681C277.568 16.0761 278.044 16.2801 278.652 16.2801Z" fill="#E0E0E0"/>
<path d="M272.818 17C272.786 16.864 272.762 16.708 272.746 16.532C272.738 16.356 272.734 16.132 272.734 15.86H272.674V12.932C272.674 12.468 272.566 12.128 272.35 11.912C272.142 11.688 271.802 11.576 271.33 11.576C270.866 11.576 270.494 11.672 270.214 11.864C269.942 12.048 269.79 12.312 269.758 12.656H268.834C268.874 12.064 269.122 11.6 269.578 11.264C270.034 10.928 270.63 10.76 271.366 10.76C272.126 10.76 272.69 10.94 273.058 11.3C273.426 11.66 273.61 12.2 273.61 12.92V15.86C273.61 16.036 273.622 16.22 273.646 16.412C273.67 16.596 273.702 16.792 273.742 17H272.818ZM270.718 17.12C270.086 17.12 269.582 16.968 269.206 16.664C268.838 16.352 268.654 15.928 268.654 15.392C268.654 14.856 268.838 14.44 269.206 14.144C269.574 13.848 270.11 13.64 270.814 13.52L272.95 13.16V13.952L270.958 14.264C270.51 14.336 270.17 14.456 269.938 14.624C269.706 14.792 269.59 15.036 269.59 15.356C269.59 15.668 269.694 15.904 269.902 16.064C270.118 16.224 270.434 16.304 270.85 16.304C271.386 16.304 271.822 16.184 272.158 15.944C272.502 15.696 272.674 15.376 272.674 14.984L272.83 15.836C272.702 16.244 272.45 16.56 272.074 16.784C271.706 17.008 271.254 17.12 270.718 17.12Z" fill="#E0E0E0"/>
<path d="M264.036 17.0001L261.504 10.8801H262.536L264.648 16.3521H264.264L266.364 10.8801H267.348L264.816 17.0001H264.036Z" fill="#E0E0E0"/>
<path d="M257.028 17V10.88H257.928V12.44H257.988V17H257.028ZM257.988 13.808L257.832 12.356C257.976 11.836 258.232 11.44 258.6 11.168C258.968 10.896 259.392 10.76 259.872 10.76C260.072 10.76 260.208 10.776 260.28 10.808V11.732C260.24 11.716 260.184 11.708 260.112 11.708C260.04 11.7 259.952 11.696 259.848 11.696C259.24 11.696 258.776 11.88 258.456 12.248C258.144 12.608 257.988 13.128 257.988 13.808Z" fill="#E0E0E0"/>
<path d="M252.043 17.12C251.459 17.12 250.943 16.984 250.495 16.712C250.047 16.432 249.695 16.052 249.439 15.572C249.183 15.092 249.055 14.54 249.055 13.916C249.055 13.292 249.179 12.744 249.427 12.272C249.683 11.792 250.039 11.42 250.495 11.156C250.951 10.892 251.475 10.76 252.067 10.76C252.635 10.76 253.127 10.884 253.543 11.132C253.967 11.38 254.291 11.728 254.515 12.176C254.747 12.624 254.863 13.152 254.863 13.76C254.863 13.84 254.859 13.916 254.851 13.988C254.851 14.06 254.843 14.14 254.827 14.228H249.775V13.424H254.239L253.927 13.868C253.927 13.132 253.763 12.568 253.435 12.176C253.115 11.776 252.659 11.576 252.067 11.576C251.459 11.576 250.967 11.788 250.591 12.212C250.223 12.628 250.039 13.192 250.039 13.904C250.039 14.632 250.223 15.216 250.591 15.656C250.967 16.088 251.467 16.304 252.091 16.304C252.483 16.304 252.827 16.22 253.123 16.052C253.419 15.876 253.635 15.628 253.771 15.308H254.683C254.483 15.868 254.147 16.312 253.675 16.64C253.211 16.96 252.667 17.12 252.043 17.12Z" fill="#E0E0E0"/>
<path d="M245.008 17.12C244.256 17.12 243.656 16.948 243.208 16.604C242.76 16.252 242.504 15.756 242.44 15.116H243.364C243.42 15.508 243.592 15.808 243.88 16.016C244.168 16.224 244.552 16.328 245.032 16.328C245.456 16.328 245.788 16.248 246.028 16.088C246.268 15.928 246.388 15.7 246.388 15.404C246.388 15.196 246.32 15.016 246.184 14.864C246.048 14.704 245.776 14.572 245.368 14.468L244.384 14.216C243.824 14.072 243.404 13.852 243.124 13.556C242.844 13.252 242.704 12.892 242.704 12.476C242.704 11.948 242.9 11.532 243.292 11.228C243.684 10.916 244.216 10.76 244.888 10.76C245.552 10.76 246.092 10.92 246.508 11.24C246.924 11.56 247.16 12.004 247.216 12.572H246.292C246.236 12.244 246.084 11.992 245.836 11.816C245.588 11.64 245.26 11.552 244.852 11.552C244.46 11.552 244.156 11.628 243.94 11.78C243.724 11.924 243.616 12.132 243.616 12.404C243.616 12.612 243.692 12.792 243.844 12.944C244.004 13.096 244.268 13.224 244.636 13.328L245.596 13.592C246.164 13.744 246.592 13.976 246.88 14.288C247.168 14.6 247.312 14.976 247.312 15.416C247.312 15.952 247.108 16.372 246.7 16.676C246.292 16.972 245.728 17.12 245.008 17.12Z" fill="#E0E0E0"/>
<path d="M237.947 17.12C237.363 17.12 236.847 16.984 236.399 16.712C235.951 16.432 235.599 16.052 235.343 15.572C235.087 15.092 234.959 14.54 234.959 13.916C234.959 13.292 235.083 12.744 235.331 12.272C235.587 11.792 235.943 11.42 236.399 11.156C236.855 10.892 237.379 10.76 237.971 10.76C238.539 10.76 239.031 10.884 239.447 11.132C239.871 11.38 240.195 11.728 240.419 12.176C240.651 12.624 240.767 13.152 240.767 13.76C240.767 13.84 240.763 13.916 240.755 13.988C240.755 14.06 240.747 14.14 240.731 14.228H235.679V13.424H240.143L239.831 13.868C239.831 13.132 239.667 12.568 239.339 12.176C239.019 11.776 238.563 11.576 237.971 11.576C237.363 11.576 236.871 11.788 236.495 12.212C236.127 12.628 235.943 13.192 235.943 13.904C235.943 14.632 236.127 15.216 236.495 15.656C236.871 16.088 237.371 16.304 237.995 16.304C238.387 16.304 238.731 16.22 239.027 16.052C239.323 15.876 239.539 15.628 239.675 15.308H240.587C240.387 15.868 240.051 16.312 239.579 16.64C239.115 16.96 238.571 17.12 237.947 17.12Z" fill="#E0E0E0"/>
<path d="M230.43 17V10.88H231.329V12.44H231.389V17H230.43ZM231.389 13.808L231.234 12.356C231.378 11.836 231.633 11.44 232.001 11.168C232.369 10.896 232.793 10.76 233.273 10.76C233.473 10.76 233.61 10.776 233.682 10.808V11.732C233.642 11.716 233.586 11.708 233.514 11.708C233.442 11.7 233.353 11.696 233.249 11.696C232.641 11.696 232.177 11.88 231.857 12.248C231.545 12.608 231.389 13.128 231.389 13.808Z" fill="#E0E0E0"/>
<path d="M222.991 17.12C222.239 17.12 221.639 16.948 221.191 16.604C220.743 16.252 220.487 15.756 220.423 15.116H221.347C221.403 15.508 221.575 15.808 221.863 16.016C222.151 16.224 222.535 16.328 223.015 16.328C223.439 16.328 223.771 16.248 224.011 16.088C224.251 15.928 224.371 15.7 224.371 15.404C224.371 15.196 224.303 15.016 224.167 14.864C224.031 14.704 223.759 14.572 223.351 14.468L222.367 14.216C221.807 14.072 221.387 13.852 221.107 13.556C220.827 13.252 220.687 12.892 220.687 12.476C220.687 11.948 220.883 11.532 221.275 11.228C221.667 10.916 222.199 10.76 222.871 10.76C223.535 10.76 224.075 10.92 224.491 11.24C224.907 11.56 225.143 12.004 225.199 12.572H224.275C224.219 12.244 224.067 11.992 223.819 11.816C223.571 11.64 223.243 11.552 222.835 11.552C222.443 11.552 222.139 11.628 221.923 11.78C221.707 11.924 221.599 12.132 221.599 12.404C221.599 12.612 221.675 12.792 221.827 12.944C221.987 13.096 222.251 13.224 222.619 13.328L223.579 13.592C224.147 13.744 224.575 13.976 224.863 14.288C225.151 14.6 225.295 14.976 225.295 15.416C225.295 15.952 225.091 16.372 224.683 16.676C224.275 16.972 223.711 17.12 222.991 17.12Z" fill="#E0E0E0"/>
<path d="M215.731 17.12C215.131 17.12 214.603 16.98 214.147 16.7C213.691 16.42 213.335 16.04 213.079 15.56C212.831 15.072 212.707 14.524 212.707 13.916C212.707 13.3 212.835 12.756 213.091 12.284C213.347 11.812 213.699 11.44 214.147 11.168C214.603 10.896 215.131 10.76 215.731 10.76C216.339 10.76 216.867 10.896 217.315 11.168C217.771 11.44 218.123 11.812 218.371 12.284C218.627 12.756 218.755 13.3 218.755 13.916C218.755 14.524 218.627 15.072 218.371 15.56C218.123 16.04 217.771 16.42 217.315 16.7C216.867 16.98 216.339 17.12 215.731 17.12ZM215.731 16.304C216.147 16.304 216.507 16.204 216.811 16.004C217.115 15.796 217.351 15.512 217.519 15.152C217.687 14.792 217.771 14.376 217.771 13.904C217.771 13.2 217.583 12.636 217.207 12.212C216.839 11.788 216.347 11.576 215.731 11.576C215.123 11.576 214.631 11.788 214.255 12.212C213.879 12.636 213.691 13.2 213.691 13.904C213.691 14.376 213.775 14.792 213.943 15.152C214.111 15.512 214.347 15.796 214.651 16.004C214.963 16.204 215.323 16.304 215.731 16.304Z" fill="#E0E0E0"/>
<path d="M205.284 17.0001V8.36011H206.244V17.0001H205.284ZM209.664 17.0001V12.9921C209.664 12.5281 209.548 12.1801 209.316 11.9481C209.084 11.7161 208.74 11.6001 208.284 11.6001C207.884 11.6001 207.528 11.6881 207.216 11.8641C206.912 12.0401 206.672 12.2841 206.496 12.5961C206.328 12.9081 206.244 13.2721 206.244 13.6881L206.088 12.2361C206.296 11.7801 206.612 11.4201 207.036 11.1561C207.468 10.8921 207.956 10.7601 208.5 10.7601C209.14 10.7601 209.652 10.9441 210.036 11.3121C210.428 11.6721 210.624 12.1481 210.624 12.7401V17.0001H209.664Z" fill="#E0E0E0"/>
<path d="M200.589 17.12C200.029 17.12 199.529 16.984 199.089 16.712C198.657 16.432 198.313 16.052 198.057 15.572C197.809 15.084 197.685 14.532 197.685 13.916C197.685 13.3 197.809 12.756 198.057 12.284C198.313 11.812 198.657 11.44 199.089 11.168C199.529 10.896 200.025 10.76 200.577 10.76C201.033 10.76 201.441 10.848 201.801 11.024C202.169 11.2 202.469 11.452 202.701 11.78C202.941 12.1 203.093 12.476 203.157 12.908H202.269C202.189 12.516 202.005 12.196 201.717 11.948C201.429 11.7 201.057 11.576 200.601 11.576C200.209 11.576 199.869 11.672 199.581 11.864C199.293 12.056 199.069 12.328 198.909 12.68C198.749 13.032 198.669 13.444 198.669 13.916C198.669 14.388 198.749 14.804 198.909 15.164C199.069 15.524 199.293 15.804 199.581 16.004C199.877 16.204 200.221 16.304 200.613 16.304C201.053 16.304 201.421 16.184 201.717 15.944C202.013 15.696 202.201 15.376 202.281 14.984H203.169C203.097 15.408 202.937 15.784 202.689 16.112C202.449 16.432 202.149 16.68 201.789 16.856C201.429 17.032 201.029 17.12 200.589 17.12Z" fill="#E0E0E0"/>
<path d="M193.18 17.12C192.596 17.12 192.08 16.984 191.632 16.712C191.184 16.432 190.832 16.052 190.576 15.572C190.32 15.092 190.192 14.54 190.192 13.916C190.192 13.292 190.316 12.744 190.564 12.272C190.82 11.792 191.176 11.42 191.632 11.156C192.088 10.892 192.612 10.76 193.204 10.76C193.772 10.76 194.264 10.884 194.68 11.132C195.104 11.38 195.428 11.728 195.652 12.176C195.884 12.624 196 13.152 196 13.76C196 13.84 195.996 13.916 195.988 13.988C195.988 14.06 195.98 14.14 195.964 14.228H190.912V13.424H195.376L195.064 13.868C195.064 13.132 194.9 12.568 194.572 12.176C194.252 11.776 193.796 11.576 193.204 11.576C192.596 11.576 192.104 11.788 191.728 12.212C191.36 12.628 191.176 13.192 191.176 13.904C191.176 14.632 191.36 15.216 191.728 15.656C192.104 16.088 192.604 16.304 193.228 16.304C193.62 16.304 193.964 16.22 194.26 16.052C194.556 15.876 194.772 15.628 194.908 15.308H195.82C195.62 15.868 195.284 16.312 194.812 16.64C194.348 16.96 193.804 17.12 193.18 17.12Z" fill="#E0E0E0"/>
<path d="M185.663 17V10.88H186.563V12.44H186.623V17H185.663ZM186.623 13.808L186.467 12.356C186.611 11.836 186.867 11.44 187.235 11.168C187.603 10.896 188.027 10.76 188.507 10.76C188.707 10.76 188.843 10.776 188.915 10.808V11.732C188.875 11.716 188.819 11.708 188.747 11.708C188.675 11.7 188.587 11.696 188.483 11.696C187.875 11.696 187.411 11.88 187.091 12.248C186.779 12.608 186.623 13.128 186.623 13.808Z" fill="#E0E0E0"/>
<path d="M180.678 17.12C180.094 17.12 179.578 16.984 179.13 16.712C178.682 16.432 178.33 16.052 178.074 15.572C177.818 15.092 177.69 14.54 177.69 13.916C177.69 13.292 177.814 12.744 178.062 12.272C178.318 11.792 178.674 11.42 179.13 11.156C179.586 10.892 180.11 10.76 180.702 10.76C181.27 10.76 181.762 10.884 182.178 11.132C182.602 11.38 182.926 11.728 183.15 12.176C183.382 12.624 183.498 13.152 183.498 13.76C183.498 13.84 183.494 13.916 183.486 13.988C183.486 14.06 183.478 14.14 183.462 14.228H178.41V13.424H182.874L182.562 13.868C182.562 13.132 182.398 12.568 182.07 12.176C181.75 11.776 181.294 11.576 180.702 11.576C180.094 11.576 179.602 11.788 179.226 12.212C178.858 12.628 178.674 13.192 178.674 13.904C178.674 14.632 178.858 15.216 179.226 15.656C179.602 16.088 180.102 16.304 180.726 16.304C181.118 16.304 181.462 16.22 181.758 16.052C182.054 15.876 182.27 15.628 182.406 15.308H183.318C183.118 15.868 182.782 16.312 182.31 16.64C181.846 16.96 181.302 17.12 180.678 17.12Z" fill="#E0E0E0"/>
<path d="M174.624 17.0001V15.5721L174.744 15.6081C174.592 16.0721 174.312 16.4401 173.904 16.7121C173.504 16.9841 173.024 17.1201 172.464 17.1201C171.912 17.1201 171.428 16.9881 171.012 16.7241C170.604 16.4601 170.284 16.0921 170.052 15.6201C169.828 15.1481 169.716 14.5961 169.716 13.9641C169.716 13.3241 169.832 12.7641 170.064 12.2841C170.296 11.8041 170.62 11.4321 171.036 11.1681C171.452 10.9041 171.94 10.7721 172.5 10.7721C173.076 10.7721 173.56 10.9121 173.952 11.1921C174.344 11.4721 174.612 11.8681 174.756 12.3801L174.564 12.4041V8.36011H175.524V17.0001H174.624ZM172.644 16.2801C173.26 16.2801 173.74 16.0721 174.084 15.6561C174.436 15.2321 174.612 14.6561 174.612 13.9281C174.612 13.2161 174.436 12.6521 174.084 12.2361C173.732 11.8201 173.252 11.6121 172.644 11.6121C172.036 11.6121 171.56 11.8201 171.216 12.2361C170.872 12.6521 170.7 13.2281 170.7 13.9641C170.7 14.6841 170.872 15.2521 171.216 15.6681C171.56 16.0761 172.036 16.2801 172.644 16.2801Z" fill="#E0E0E0"/>
<path d="M162.734 17.12C161.982 17.12 161.382 16.948 160.934 16.604C160.486 16.252 160.23 15.756 160.166 15.116H161.09C161.146 15.508 161.318 15.808 161.606 16.016C161.894 16.224 162.278 16.328 162.758 16.328C163.182 16.328 163.514 16.248 163.754 16.088C163.994 15.928 164.114 15.7 164.114 15.404C164.114 15.196 164.046 15.016 163.91 14.864C163.774 14.704 163.502 14.572 163.094 14.468L162.11 14.216C161.55 14.072 161.13 13.852 160.85 13.556C160.57 13.252 160.43 12.892 160.43 12.476C160.43 11.948 160.626 11.532 161.018 11.228C161.41 10.916 161.942 10.76 162.614 10.76C163.278 10.76 163.818 10.92 164.234 11.24C164.65 11.56 164.886 12.004 164.942 12.572H164.018C163.962 12.244 163.81 11.992 163.562 11.816C163.314 11.64 162.986 11.552 162.578 11.552C162.186 11.552 161.882 11.628 161.666 11.78C161.45 11.924 161.342 12.132 161.342 12.404C161.342 12.612 161.418 12.792 161.57 12.944C161.73 13.096 161.994 13.224 162.362 13.328L163.322 13.592C163.89 13.744 164.318 13.976 164.606 14.288C164.894 14.6 165.038 14.976 165.038 15.416C165.038 15.952 164.834 16.372 164.426 16.676C164.018 16.972 163.454 17.12 162.734 17.12Z" fill="#E0E0E0"/>
<path d="M155.474 17.12C154.874 17.12 154.346 16.98 153.89 16.7C153.434 16.42 153.078 16.04 152.822 15.56C152.574 15.072 152.45 14.524 152.45 13.916C152.45 13.3 152.578 12.756 152.834 12.284C153.09 11.812 153.442 11.44 153.89 11.168C154.346 10.896 154.874 10.76 155.474 10.76C156.082 10.76 156.61 10.896 157.058 11.168C157.514 11.44 157.866 11.812 158.114 12.284C158.37 12.756 158.498 13.3 158.498 13.916C158.498 14.524 158.37 15.072 158.114 15.56C157.866 16.04 157.514 16.42 157.058 16.7C156.61 16.98 156.082 17.12 155.474 17.12ZM155.474 16.304C155.89 16.304 156.25 16.204 156.554 16.004C156.858 15.796 157.094 15.512 157.262 15.152C157.43 14.792 157.514 14.376 157.514 13.904C157.514 13.2 157.326 12.636 156.95 12.212C156.582 11.788 156.09 11.576 155.474 11.576C154.866 11.576 154.374 11.788 153.998 12.212C153.622 12.636 153.434 13.2 153.434 13.904C153.434 14.376 153.518 14.792 153.686 15.152C153.854 15.512 154.09 15.796 154.394 16.004C154.706 16.204 155.066 16.304 155.474 16.304Z" fill="#E0E0E0"/>
<path d="M149.327 17.0001V8.36011H150.287V17.0001H149.327Z" fill="#E0E0E0"/>
<path d="M141.889 17.12C141.137 17.12 140.537 16.948 140.089 16.604C139.641 16.252 139.385 15.756 139.321 15.116H140.245C140.301 15.508 140.473 15.808 140.761 16.016C141.049 16.224 141.433 16.328 141.913 16.328C142.337 16.328 142.669 16.248 142.909 16.088C143.149 15.928 143.269 15.7 143.269 15.404C143.269 15.196 143.201 15.016 143.065 14.864C142.929 14.704 142.657 14.572 142.249 14.468L141.265 14.216C140.705 14.072 140.285 13.852 140.005 13.556C139.725 13.252 139.585 12.892 139.585 12.476C139.585 11.948 139.781 11.532 140.173 11.228C140.565 10.916 141.097 10.76 141.769 10.76C142.433 10.76 142.973 10.92 143.389 11.24C143.805 11.56 144.041 12.004 144.097 12.572H143.173C143.117 12.244 142.965 11.992 142.717 11.816C142.469 11.64 142.141 11.552 141.733 11.552C141.341 11.552 141.037 11.628 140.821 11.78C140.605 11.924 140.497 12.132 140.497 12.404C140.497 12.612 140.573 12.792 140.725 12.944C140.885 13.096 141.149 13.224 141.517 13.328L142.477 13.592C143.045 13.744 143.473 13.976 143.761 14.288C144.049 14.6 144.193 14.976 144.193 15.416C144.193 15.952 143.989 16.372 143.581 16.676C143.173 16.972 142.609 17.12 141.889 17.12Z" fill="#E0E0E0"/>
<path d="M134.629 17.12C134.029 17.12 133.501 16.98 133.045 16.7C132.589 16.42 132.233 16.04 131.977 15.56C131.729 15.072 131.605 14.524 131.605 13.916C131.605 13.3 131.733 12.756 131.989 12.284C132.245 11.812 132.597 11.44 133.045 11.168C133.501 10.896 134.029 10.76 134.629 10.76C135.237 10.76 135.765 10.896 136.213 11.168C136.669 11.44 137.021 11.812 137.269 12.284C137.525 12.756 137.653 13.3 137.653 13.916C137.653 14.524 137.525 15.072 137.269 15.56C137.021 16.04 136.669 16.42 136.213 16.7C135.765 16.98 135.237 17.12 134.629 17.12ZM134.629 16.304C135.045 16.304 135.405 16.204 135.709 16.004C136.013 15.796 136.249 15.512 136.417 15.152C136.585 14.792 136.669 14.376 136.669 13.904C136.669 13.2 136.481 12.636 136.105 12.212C135.737 11.788 135.245 11.576 134.629 11.576C134.021 11.576 133.529 11.788 133.153 12.212C132.777 12.636 132.589 13.2 132.589 13.904C132.589 14.376 132.673 14.792 132.841 15.152C133.009 15.512 133.245 15.796 133.549 16.004C133.861 16.204 134.221 16.304 134.629 16.304Z" fill="#E0E0E0"/>
<path d="M128.54 17.0001V15.5721L128.66 15.6081C128.508 16.0721 128.228 16.4401 127.82 16.7121C127.42 16.9841 126.94 17.1201 126.38 17.1201C125.828 17.1201 125.344 16.9881 124.928 16.7241C124.52 16.4601 124.2 16.0921 123.968 15.6201C123.744 15.1481 123.632 14.5961 123.632 13.9641C123.632 13.3241 123.748 12.7641 123.98 12.2841C124.212 11.8041 124.536 11.4321 124.952 11.1681C125.368 10.9041 125.856 10.7721 126.416 10.7721C126.992 10.7721 127.476 10.9121 127.868 11.1921C128.26 11.4721 128.528 11.8681 128.672 12.3801L128.48 12.4041V8.36011H129.44V17.0001H128.54ZM126.56 16.2801C127.176 16.2801 127.656 16.0721 128 15.6561C128.352 15.2321 128.528 14.6561 128.528 13.9281C128.528 13.2161 128.352 12.6521 128 12.2361C127.648 11.8201 127.168 11.6121 126.56 11.6121C125.952 11.6121 125.476 11.8201 125.132 12.2361C124.788 12.6521 124.616 13.2281 124.616 13.9641C124.616 14.6841 124.788 15.2521 125.132 15.6681C125.476 16.0761 125.952 16.2801 126.56 16.2801Z" fill="#E0E0E0"/>
<path d="M118.904 17.12C118.304 17.12 117.776 16.98 117.32 16.7C116.864 16.42 116.508 16.04 116.252 15.56C116.004 15.072 115.88 14.524 115.88 13.916C115.88 13.3 116.008 12.756 116.264 12.284C116.52 11.812 116.872 11.44 117.32 11.168C117.776 10.896 118.304 10.76 118.904 10.76C119.512 10.76 120.04 10.896 120.488 11.168C120.944 11.44 121.296 11.812 121.544 12.284C121.8 12.756 121.928 13.3 121.928 13.916C121.928 14.524 121.8 15.072 121.544 15.56C121.296 16.04 120.944 16.42 120.488 16.7C120.04 16.98 119.512 17.12 118.904 17.12ZM118.904 16.304C119.32 16.304 119.68 16.204 119.984 16.004C120.288 15.796 120.524 15.512 120.692 15.152C120.86 14.792 120.944 14.376 120.944 13.904C120.944 13.2 120.756 12.636 120.38 12.212C120.012 11.788 119.52 11.576 118.904 11.576C118.296 11.576 117.804 11.788 117.428 12.212C117.052 12.636 116.864 13.2 116.864 13.904C116.864 14.376 116.948 14.792 117.116 15.152C117.284 15.512 117.52 15.796 117.824 16.004C118.136 16.204 118.496 16.304 118.904 16.304Z" fill="#E0E0E0"/>
<path d="M113.705 17.108C113.025 17.108 112.529 16.956 112.217 16.652C111.913 16.34 111.761 15.892 111.761 15.308V9.45204L112.721 9.09204V15.296C112.721 15.64 112.809 15.892 112.985 16.052C113.161 16.212 113.449 16.292 113.849 16.292C114.009 16.292 114.145 16.284 114.257 16.268C114.377 16.244 114.473 16.216 114.545 16.184V17C114.465 17.032 114.349 17.056 114.197 17.072C114.053 17.096 113.889 17.108 113.705 17.108ZM110.501 11.696V10.88H114.545V11.696H110.501Z" fill="#E0E0E0"/>
<path d="M104.32 18.7281V18.2361C104.552 18.1481 104.72 18.0081 104.824 17.8161C104.928 17.6321 104.98 17.3481 104.98 16.9641L105.352 17.0001H104.32V15.7761H105.532V16.7481C105.532 17.2601 105.436 17.6841 105.244 18.0201C105.052 18.3561 104.744 18.5921 104.32 18.7281Z" fill="#E0E0E0"/>
<path d="M99.7585 17.12C99.1585 17.12 98.6305 16.98 98.1745 16.7C97.7185 16.42 97.3625 16.04 97.1065 15.56C96.8585 15.072 96.7345 14.524 96.7345 13.916C96.7345 13.3 96.8625 12.756 97.1185 12.284C97.3745 11.812 97.7265 11.44 98.1745 11.168C98.6305 10.896 99.1585 10.76 99.7585 10.76C100.366 10.76 100.894 10.896 101.342 11.168C101.798 11.44 102.15 11.812 102.398 12.284C102.654 12.756 102.782 13.3 102.782 13.916C102.782 14.524 102.654 15.072 102.398 15.56C102.15 16.04 101.798 16.42 101.342 16.7C100.894 16.98 100.366 17.12 99.7585 17.12ZM99.7585 16.304C100.174 16.304 100.534 16.204 100.838 16.004C101.142 15.796 101.378 15.512 101.546 15.152C101.714 14.792 101.798 14.376 101.798 13.904C101.798 13.2 101.61 12.636 101.234 12.212C100.866 11.788 100.374 11.576 99.7585 11.576C99.1505 11.576 98.6585 11.788 98.2825 12.212C97.9065 12.636 97.7185 13.2 97.7185 13.904C97.7185 14.376 97.8025 14.792 97.9705 15.152C98.1385 15.512 98.3745 15.796 98.6785 16.004C98.9905 16.204 99.3505 16.304 99.7585 16.304Z" fill="#E0E0E0"/>
<path d="M91.2787 17.1202C90.3987 17.1202 89.6347 16.9402 88.9867 16.5802C88.3387 16.2202 87.8387 15.7162 87.4867 15.0682C87.1347 14.4122 86.9587 13.6402 86.9587 12.7522C86.9587 11.8642 87.1307 11.0842 87.4747 10.4122C87.8267 9.73223 88.3107 9.20023 88.9267 8.81623C89.5507 8.43223 90.2667 8.24023 91.0747 8.24023C91.7067 8.24023 92.2787 8.36023 92.7907 8.60023C93.3107 8.84023 93.7347 9.17223 94.0627 9.59623C94.3987 10.0202 94.6027 10.5122 94.6747 11.0722H93.6907C93.6107 10.4802 93.3347 10.0082 92.8627 9.65623C92.3987 9.30423 91.8147 9.12823 91.1107 9.12823C90.4787 9.12823 89.9267 9.28023 89.4547 9.58423C88.9827 9.88023 88.6147 10.2962 88.3507 10.8322C88.0947 11.3682 87.9667 12.0002 87.9667 12.7282C87.9667 13.4562 88.0987 14.0842 88.3627 14.6122C88.6347 15.1322 89.0227 15.5322 89.5267 15.8122C90.0387 16.0922 90.6507 16.2322 91.3627 16.2322C91.8507 16.2322 92.2867 16.1642 92.6707 16.0282C93.0547 15.8842 93.4027 15.6642 93.7147 15.3682L94.6987 15.7282C94.2587 16.1922 93.7507 16.5402 93.1747 16.7722C92.6067 17.0042 91.9747 17.1202 91.2787 17.1202ZM93.7147 15.7282V12.9322L94.0867 13.3042H91.3507V12.4402H94.6987V15.7282H93.7147Z" fill="#E0E0E0"/>
<path d="M84.5233 17.108C83.8433 17.108 83.3473 16.956 83.0353 16.652C82.7313 16.34 82.5793 15.892 82.5793 15.308V9.45204L83.5393 9.09204V15.296C83.5393 15.64 83.6273 15.892 83.8033 16.052C83.9793 16.212 84.2673 16.292 84.6673 16.292C84.8273 16.292 84.9633 16.284 85.0753 16.268C85.1953 16.244 85.2913 16.216 85.3633 16.184V17C85.2833 17.032 85.1673 17.056 85.0153 17.072C84.8713 17.096 84.7073 17.108 84.5233 17.108ZM81.3193 11.696V10.88H85.3633V11.696H81.3193Z" fill="#E0E0E0"/>
<path d="M77.1602 17.12C76.5762 17.12 76.0602 16.984 75.6122 16.712C75.1642 16.432 74.8122 16.052 74.5562 15.572C74.3002 15.092 74.1722 14.54 74.1722 13.916C74.1722 13.292 74.2962 12.744 74.5442 12.272C74.8002 11.792 75.1562 11.42 75.6122 11.156C76.0682 10.892 76.5922 10.76 77.1842 10.76C77.7522 10.76 78.2442 10.884 78.6602 11.132C79.0842 11.38 79.4082 11.728 79.6322 12.176C79.8642 12.624 79.9802 13.152 79.9802 13.76C79.9802 13.84 79.9762 13.916 79.9682 13.988C79.9682 14.06 79.9602 14.14 79.9442 14.228H74.8922V13.424H79.3562L79.0442 13.868C79.0442 13.132 78.8802 12.568 78.5522 12.176C78.2322 11.776 77.7762 11.576 77.1842 11.576C76.5762 11.576 76.0842 11.788 75.7082 12.212C75.3402 12.628 75.1562 13.192 75.1562 13.904C75.1562 14.632 75.3402 15.216 75.7082 15.656C76.0842 16.088 76.5842 16.304 77.2082 16.304C77.6002 16.304 77.9442 16.22 78.2402 16.052C78.5362 15.876 78.7522 15.628 78.8882 15.308H79.8002C79.6002 15.868 79.2642 16.312 78.7922 16.64C78.3282 16.96 77.7842 17.12 77.1602 17.12Z" fill="#E0E0E0"/>
<path d="M67.8736 17.0001V8.12012H68.8336V17.0001H67.8736ZM71.8696 17.0001L68.6176 13.8201L71.7496 10.8801H73.0696L69.5536 14.0961L69.6136 13.5321L73.1896 17.0001H71.8696Z" fill="#E0E0E0"/>
<path d="M63.1791 17.12C62.6191 17.12 62.1191 16.984 61.6791 16.712C61.2471 16.432 60.9031 16.052 60.6471 15.572C60.3991 15.084 60.2751 14.532 60.2751 13.916C60.2751 13.3 60.3991 12.756 60.6471 12.284C60.9031 11.812 61.2471 11.44 61.6791 11.168C62.1191 10.896 62.6151 10.76 63.1671 10.76C63.6231 10.76 64.0311 10.848 64.3911 11.024C64.7591 11.2 65.0591 11.452 65.2911 11.78C65.5311 12.1 65.6831 12.476 65.7471 12.908H64.8591C64.7791 12.516 64.5951 12.196 64.3071 11.948C64.0191 11.7 63.6471 11.576 63.1911 11.576C62.7991 11.576 62.4591 11.672 62.1711 11.864C61.8831 12.056 61.6591 12.328 61.4991 12.68C61.3391 13.032 61.2591 13.444 61.2591 13.916C61.2591 14.388 61.3391 14.804 61.4991 15.164C61.6591 15.524 61.8831 15.804 62.1711 16.004C62.4671 16.204 62.8111 16.304 63.2031 16.304C63.6431 16.304 64.0111 16.184 64.3071 15.944C64.6031 15.696 64.7911 15.376 64.8711 14.984H65.7591C65.6871 15.408 65.5271 15.784 65.2791 16.112C65.0391 16.432 64.7391 16.68 64.3791 16.856C64.0191 17.032 63.6191 17.12 63.1791 17.12Z" fill="#E0E0E0"/>
<path d="M57.1758 17.0001V10.8801H58.1358V17.0001H57.1758ZM57.1038 9.48811V8.36011H58.2078V9.48811H57.1038Z" fill="#E0E0E0"/>
<path d="M51.2511 17.0001V9.22411H48.2871V8.36011H55.1991V9.22411H52.2351V17.0001H51.2511Z" fill="#E0E0E0"/>
<path d="M41.5215 17.0001V14.7201L41.5455 14.4801V9.54811H41.8695L38.2215 14.5401L37.8975 14.1441H43.6575V15.0081H37.2255V14.2641L41.5695 8.36011H42.5535V17.0001H41.5215Z" fill="#E0E0E0"/>
<path d="M30.4603 17.0002V16.1602C31.3243 15.4482 32.0443 14.8242 32.6203 14.2882C33.2043 13.7522 33.6683 13.2762 34.0123 12.8602C34.3643 12.4442 34.6123 12.0642 34.7563 11.7202C34.9083 11.3682 34.9843 11.0242 34.9843 10.6882C34.9843 10.1922 34.8363 9.80423 34.5403 9.52423C34.2443 9.24423 33.8363 9.10423 33.3163 9.10423C32.7803 9.10423 32.3483 9.25623 32.0203 9.56023C31.6923 9.86423 31.4923 10.3002 31.4203 10.8682H30.3883C30.4683 10.0842 30.7683 9.45223 31.2883 8.97223C31.8163 8.48423 32.5163 8.24023 33.3883 8.24023C34.1963 8.24023 34.8403 8.45623 35.3203 8.88823C35.8003 9.32023 36.0403 9.91223 36.0403 10.6642C36.0403 11.0722 35.9603 11.4802 35.8003 11.8882C35.6483 12.2962 35.3923 12.7242 35.0323 13.1722C34.6803 13.6202 34.2123 14.1162 33.6283 14.6602C33.0523 15.1962 32.3363 15.8042 31.4803 16.4842L31.2523 16.1362H36.1843V17.0002H30.4603Z" fill="#E0E0E0"/>
<path d="M25.3344 17.1202C24.6544 17.1202 24.0584 16.9322 23.5464 16.5562C23.0424 16.1722 22.6464 15.6442 22.3584 14.9722C22.0784 14.2922 21.9384 13.5162 21.9384 12.6442C21.9384 11.7722 22.0784 11.0082 22.3584 10.3522C22.6384 9.68823 23.0344 9.17223 23.5464 8.80423C24.0584 8.42823 24.6544 8.24023 25.3344 8.24023C26.0144 8.24023 26.6064 8.42823 27.1104 8.80423C27.6224 9.17223 28.0184 9.68823 28.2984 10.3522C28.5864 11.0082 28.7304 11.7722 28.7304 12.6442C28.7304 13.5242 28.5864 14.3002 28.2984 14.9722C28.0184 15.6442 27.6224 16.1722 27.1104 16.5562C26.6064 16.9322 26.0144 17.1202 25.3344 17.1202ZM25.3344 16.2562C25.8224 16.2562 26.2384 16.1122 26.5824 15.8242C26.9264 15.5282 27.1904 15.1122 27.3744 14.5762C27.5584 14.0322 27.6504 13.3842 27.6504 12.6322C27.6504 11.8882 27.5584 11.2522 27.3744 10.7242C27.1984 10.1962 26.9384 9.79623 26.5944 9.52423C26.2504 9.24423 25.8304 9.10423 25.3344 9.10423C24.8384 9.10423 24.4184 9.24423 24.0744 9.52423C23.7304 9.80423 23.4664 10.2082 23.2824 10.7362C23.1064 11.2562 23.0184 11.8882 23.0184 12.6322C23.0184 13.3842 23.1104 14.0322 23.2944 14.5762C23.4784 15.1202 23.7424 15.5362 24.0864 15.8242C24.4304 16.1122 24.8464 16.2562 25.3344 16.2562Z" fill="#E0E0E0"/>
<path d="M14.3953 17.0002V16.1602C15.2593 15.4482 15.9793 14.8242 16.5553 14.2882C17.1393 13.7522 17.6033 13.2762 17.9473 12.8602C18.2993 12.4442 18.5473 12.0642 18.6913 11.7202C18.8433 11.3682 18.9193 11.0242 18.9193 10.6882C18.9193 10.1922 18.7713 9.80423 18.4753 9.52423C18.1793 9.24423 17.7713 9.10423 17.2513 9.10423C16.7153 9.10423 16.2833 9.25623 15.9553 9.56023C15.6273 9.86423 15.4273 10.3002 15.3553 10.8682H14.3233C14.4033 10.0842 14.7033 9.45223 15.2233 8.97223C15.7513 8.48423 16.4513 8.24023 17.3233 8.24023C18.1313 8.24023 18.7753 8.45623 19.2553 8.88823C19.7353 9.32023 19.9753 9.91223 19.9753 10.6642C19.9753 11.0722 19.8953 11.4802 19.7353 11.8882C19.5833 12.2962 19.3273 12.7242 18.9673 13.1722C18.6153 13.6202 18.1473 14.1162 17.5633 14.6602C16.9873 15.1962 16.2713 15.8042 15.4153 16.4842L15.1873 16.1362H20.1193V17.0002H14.3953Z" fill="#E0E0E0"/>
<path d="M8.09998 17.1802C7.47598 17.1802 6.89198 17.0642 6.34798 16.8322C5.80398 16.6002 5.32398 16.2802 4.90798 15.8722C4.49998 15.4562 4.17998 14.9762 3.94798 14.4322C3.71598 13.8882 3.59998 13.3042 3.59998 12.6802C3.59998 12.0562 3.71598 11.4722 3.94798 10.9282C4.17998 10.3842 4.49998 9.90818 4.90798 9.50018C5.32398 9.08418 5.80398 8.76018 6.34798 8.52818C6.89198 8.29618 7.47598 8.18018 8.09998 8.18018C8.72398 8.18018 9.30798 8.29618 9.85198 8.52818C10.396 8.76018 10.872 9.08418 11.28 9.50018C11.696 9.90818 12.02 10.3842 12.252 10.9282C12.484 11.4722 12.6 12.0562 12.6 12.6802C12.6 13.3042 12.484 13.8882 12.252 14.4322C12.02 14.9762 11.696 15.4562 11.28 15.8722C10.872 16.2802 10.396 16.6002 9.85198 16.8322C9.30798 17.0642 8.72398 17.1802 8.09998 17.1802ZM8.09998 16.7242C8.65198 16.7242 9.17198 16.6202 9.65998 16.4122C10.148 16.1962 10.576 15.9042 10.944 15.5362C11.312 15.1602 11.6 14.7282 11.808 14.2402C12.016 13.7522 12.12 13.2322 12.12 12.6802C12.12 12.1282 12.016 11.6082 11.808 11.1202C11.6 10.6322 11.312 10.2042 10.944 9.83618C10.576 9.46018 10.148 9.16818 9.65998 8.96018C9.17198 8.74418 8.65198 8.63618 8.09998 8.63618C7.54798 8.63618 7.02798 8.74418 6.53998 8.96018C6.05198 9.16818 5.62398 9.46018 5.25598 9.83618C4.88798 10.2042 4.59998 10.6322 4.39198 11.1202C4.18398 11.6082 4.07998 12.1282 4.07998 12.6802C4.07998 13.2322 4.18398 13.7522 4.39198 14.2402C4.59998 14.7282 4.88798 15.1602 5.25598 15.5362C5.62398 15.9042 6.05198 16.1962 6.53998 16.4122C7.02798 16.6202 7.54798 16.7242 8.09998 16.7242ZM6.41998 15.2602V10.1002H8.32798C8.86398 10.1002 9.28798 10.2282 9.59998 10.4842C9.91198 10.7322 10.068 11.0722 10.068 11.5042C10.068 12.2082 9.60798 12.6602 8.68798 12.8602L8.75998 12.6682C9.13598 12.6522 9.43198 12.7482 9.64798 12.9562C9.87198 13.1562 9.98398 13.4362 9.98398 13.7962V14.6482C9.98398 14.7362 9.98798 14.8322 9.99598 14.9362C10.004 15.0322 10.02 15.1402 10.044 15.2602H9.44398C9.42798 15.1882 9.41598 15.1002 9.40798 14.9962C9.39998 14.8922 9.39598 14.7762 9.39598 14.6482V13.9162C9.39598 13.6042 9.30398 13.3682 9.11998 13.2082C8.94398 13.0402 8.69198 12.9562 8.36398 12.9562H6.85198V12.4762H8.30398C8.67998 12.4762 8.96798 12.3922 9.16798 12.2242C9.37598 12.0562 9.47998 11.8242 9.47998 11.5282C9.47998 11.2322 9.37598 11.0082 9.16798 10.8562C8.96798 10.6962 8.67998 10.6162 8.30398 10.6162H7.00798V15.2602H6.41998Z" fill="#E0E0E0"/>
</svg>
