<svg width="101" height="34" viewBox="0 0 101 34" fill="none" xmlns="http://www.w3.org/2000/svg">
<path d="M55.8765 29.6592C54.4863 29.6592 53.4507 29.3258 52.7697 28.659C52.103 27.9781 51.7696 26.9496 51.7696 25.5736V16.147L54.9615 14.9553V25.68C54.9615 26.1623 55.0963 26.524 55.3658 26.7652C55.6353 27.0064 56.0538 27.127 56.6212 27.127C56.834 27.127 57.0326 27.1057 57.2171 27.0631C57.4015 27.0206 57.5859 26.9709 57.7703 26.9142V29.34C57.5859 29.4393 57.3235 29.5173 56.983 29.5741C56.6567 29.6308 56.2879 29.6592 55.8765 29.6592ZM49.7481 20.9986V18.5728H57.7703V20.9986H49.7481Z" fill="#9E9E9E"/>
<path d="M43.9061 29.6378C42.7003 29.6378 41.6505 29.4037 40.7568 28.9356C39.8631 28.4532 39.1679 27.7865 38.6714 26.9353C38.1891 26.0842 37.9479 25.1053 37.9479 23.9988C37.9479 22.8781 38.1891 21.8993 38.6714 21.0623C39.1679 20.2111 39.856 19.5515 40.7355 19.0834C41.615 18.601 42.6364 18.3599 43.7997 18.3599C44.9204 18.3599 45.8921 18.5868 46.7149 19.0408C47.5377 19.4947 48.1761 20.126 48.63 20.9346C49.084 21.7432 49.311 22.6937 49.311 23.786C49.311 24.013 49.3039 24.2258 49.2897 24.4244C49.2755 24.6088 49.2542 24.7861 49.2258 24.9564H39.8205V22.8497H46.6511L46.0978 23.2328C46.0978 22.3532 45.885 21.7078 45.4595 21.2964C45.0481 20.8708 44.4806 20.658 43.7571 20.658C42.9201 20.658 42.2676 20.9417 41.7994 21.5092C41.3455 22.0766 41.1185 22.9278 41.1185 24.0627C41.1185 25.1692 41.3455 25.992 41.7994 26.531C42.2676 27.0701 42.9627 27.3396 43.8848 27.3396C44.3955 27.3396 44.8353 27.2545 45.2041 27.0843C45.5729 26.9141 45.8496 26.6374 46.034 26.2544H49.0343C48.6797 27.3042 48.0697 28.1341 47.2043 28.7441C46.3532 29.3399 45.2538 29.6378 43.9061 29.6378Z" fill="#9E9E9E"/>
<path d="M27.4737 29.4249L27.4737 14.104H30.6656L30.6656 29.4249H27.4737ZM34.432 29.4249L29.9208 23.786L34.3256 18.5726H38.0068L32.836 24.2754L32.985 23.2753L38.2196 29.4249H34.432Z" fill="#9E9E9E"/>
<path d="M20.4405 29.6378C19.3056 29.6378 18.3055 29.3966 17.4402 28.9143C16.5748 28.432 15.8939 27.7652 15.3974 26.9141C14.9151 26.0629 14.6739 25.0911 14.6739 23.9988C14.6739 22.9065 14.9151 21.9347 15.3974 21.0836C15.8939 20.2324 16.5748 19.5657 17.4402 19.0834C18.3055 18.601 19.3056 18.3599 20.4405 18.3599C21.391 18.3599 22.2421 18.5372 22.994 18.8918C23.7601 19.2323 24.3842 19.7075 24.8666 20.3175C25.3631 20.9275 25.6823 21.6439 25.8241 22.4667H22.7387C22.5826 21.9418 22.2989 21.5446 21.8875 21.2751C21.4903 21.0056 21.0221 20.8708 20.4831 20.8708C19.9724 20.8708 19.5255 20.9985 19.1425 21.2538C18.7737 21.5092 18.4899 21.8709 18.2913 22.3391C18.0927 22.8072 17.9934 23.3604 17.9934 23.9988C17.9934 24.6372 18.0927 25.1904 18.2913 25.6586C18.4899 26.1267 18.7737 26.4885 19.1425 26.7438C19.5255 26.9992 19.9724 27.1268 20.4831 27.1268C21.0221 27.1268 21.4903 26.9921 21.8875 26.7225C22.2989 26.453 22.5826 26.0558 22.7387 25.5309H25.8241C25.6823 26.3537 25.3631 27.0701 24.8666 27.6801C24.3842 28.2901 23.7601 28.7724 22.994 29.1271C22.2421 29.4675 21.391 29.6378 20.4405 29.6378Z" fill="#9E9E9E"/>
<path d="M9.74842 29.425L9.74842 18.5727H13.1295L13.1295 29.425H9.74842ZM9.64203 17.1257V13.6785H13.2359V17.1257H9.64203Z" fill="#9E9E9E"/>
<path d="M6.12837 29.6592C4.73814 29.6592 3.70256 29.3258 3.02163 28.659C2.35488 27.9781 2.02151 26.9496 2.02151 25.5736L2.02151 16.147L5.21337 14.9553L5.21337 25.68C5.21337 26.1623 5.34814 26.524 5.61768 26.7652C5.88721 27.0064 6.3057 27.127 6.87314 27.127C7.08593 27.127 7.28454 27.1057 7.46896 27.0631C7.65338 27.0206 7.83779 26.9709 8.02221 26.9142V29.34C7.83779 29.4393 7.57535 29.5173 7.23489 29.5741C6.90861 29.6308 6.53977 29.6592 6.12837 29.6592ZM0 20.9986L0 18.5728H8.02221L8.02221 20.9986H0Z" fill="#9E9E9E"/>
<path d="M72.2063 34C70.7026 34 69.4755 33.6808 68.525 33.0424C67.5888 32.4041 67.0355 31.5387 66.8653 30.4464H69.8869C70.0004 30.7159 70.2416 30.9216 70.6104 31.0635C70.9934 31.2053 71.4757 31.2763 72.0574 31.2763C73.022 31.2763 73.7242 31.0918 74.164 30.723C74.6038 30.3542 74.8237 29.7796 74.8237 28.9994V26.6374L74.9939 26.68C74.852 27.4744 74.4406 28.1057 73.7597 28.5738C73.0788 29.0278 72.2347 29.2548 71.2275 29.2548C70.2628 29.2548 69.4188 29.0349 68.6953 28.5951C67.986 28.1411 67.4327 27.5099 67.0355 26.7013C66.6383 25.8927 66.4397 24.9422 66.4397 23.8499C66.4397 22.7434 66.6454 21.7787 67.0568 20.9559C67.4682 20.1331 68.0427 19.4947 68.7804 19.0408C69.5323 18.5868 70.4047 18.3599 71.3977 18.3599C72.4191 18.3599 73.249 18.601 73.8874 19.0834C74.5399 19.5657 74.923 20.2253 75.0364 21.0623L74.8875 21.0836V18.5727L78.0155 18.5727V28.9568C78.0155 30.5173 77.4977 31.7444 76.4621 32.6381C75.4266 33.546 74.008 34 72.2063 34ZM72.334 26.8077C73.0859 26.8077 73.6959 26.5523 74.164 26.0416C74.6321 25.5167 74.8662 24.772 74.8662 23.8073C74.8662 22.8427 74.6251 22.105 74.1427 21.5943C73.6746 21.0694 73.0575 20.807 72.2914 20.807C71.5538 20.807 70.9438 21.0694 70.4614 21.5943C69.9933 22.1192 69.7592 22.8639 69.7592 23.8286C69.7592 24.7932 69.9933 25.5309 70.4614 26.0416C70.9438 26.5523 71.568 26.8077 72.334 26.8077Z" fill="#9E9E9E"/>
<path d="M86.3873 29.3419C89.8647 29.3419 92.6837 26.5229 92.6837 23.0455C92.6837 19.568 89.8647 16.749 86.3873 16.749C82.9098 16.749 80.0908 19.568 80.0908 23.0455C80.0908 26.5229 82.9098 29.3419 86.3873 29.3419Z" fill="#9E9E9E"/>
<path d="M89.8854 4.15601V23.0453H92.6838V9.75285L100.379 11.8517V6.95443L89.8854 4.15601Z" fill="#9E9E9E"/>
<path d="M9.64203 3.23862V12.4682H13.2383V6.28103L19.2841 5.32694L19.6166 1.82861L9.64203 3.23862Z" fill="#9E9E9E"/>
<path d="M30.5886 0V12.4682H27.3508V4.05762L18.2866 5.48601L19.4503 1.82867L30.5886 0Z" fill="#9E9E9E"/>
<path d="M27.469 9.14339L27.4689 6.64975L11.7718 8.47842L11.7718 10.3249L27.469 9.14339Z" fill="#9E9E9E"/>
</svg>
