<svg width="133" height="45" viewBox="0 0 133 45" fill="none" xmlns="http://www.w3.org/2000/svg">
<path d="M73.9543 39.2547C72.1143 39.2547 70.7436 38.8134 69.8424 37.931C68.96 37.0297 68.5187 35.6685 68.5187 33.8473V21.3708L72.7433 19.7937V33.9881C72.7433 34.6265 72.9216 35.1052 73.2784 35.4244C73.6351 35.7436 74.189 35.9032 74.94 35.9032C75.2216 35.9032 75.4845 35.875 75.7286 35.8187C75.9727 35.7624 76.2168 35.6967 76.4608 35.6216V38.8322C76.2168 38.9636 75.8694 39.0669 75.4188 39.142C74.987 39.2171 74.4988 39.2547 73.9543 39.2547ZM65.8432 27.7921V24.5815H76.4608V27.7921H65.8432Z" fill="white"/>
<path d="M58.111 39.2265C56.5151 39.2265 55.1257 38.9167 53.9428 38.2971C52.7599 37.6587 51.8399 36.7762 51.1828 35.6497C50.5444 34.5232 50.2252 33.2276 50.2252 31.7631C50.2252 30.2799 50.5444 28.9843 51.1828 27.8766C51.8399 26.75 52.7505 25.877 53.9146 25.2574C55.0787 24.619 56.4306 24.2998 57.9702 24.2998C59.4535 24.2998 60.7396 24.6002 61.8286 25.201C62.9176 25.8019 63.7625 26.6374 64.3633 27.7076C64.9641 28.7778 65.2645 30.0358 65.2645 31.4815C65.2645 31.7819 65.2551 32.0635 65.2364 32.3264C65.2176 32.5705 65.1894 32.8052 65.1519 33.0305H52.7036V30.2423H61.7441L61.0118 30.7492C61.0118 29.5852 60.7302 28.7309 60.1669 28.1864C59.6224 27.6231 58.8714 27.3415 57.9139 27.3415C56.8061 27.3415 55.9424 27.717 55.3228 28.468C54.722 29.219 54.4216 30.3456 54.4216 31.8476C54.4216 33.3121 54.722 34.4011 55.3228 35.1146C55.9424 35.8281 56.8624 36.1848 58.0828 36.1848C58.7588 36.1848 59.3408 36.0721 59.829 35.8468C60.3171 35.6215 60.6833 35.2554 60.9274 34.7485H64.8984C64.429 36.1379 63.6217 37.2362 62.4763 38.0436C61.3498 38.8322 59.8947 39.2265 58.111 39.2265Z" fill="white"/>
<path d="M36.3623 38.9448V18.6671H40.5868V38.9448H36.3623ZM45.5718 38.9448L39.6011 31.4815L45.431 24.5814L50.3032 24.5814L43.4595 32.1293L43.6567 30.8056L50.5849 38.9448H45.5718Z" fill="#46D0F2"/>
<path d="M27.0537 39.2265C25.5516 39.2265 24.228 38.9073 23.0826 38.2689C21.9373 37.6305 21.0361 36.7481 20.3789 35.6215C19.7406 34.495 19.4214 33.2089 19.4214 31.7631C19.4214 30.3174 19.7406 29.0313 20.3789 27.9047C21.0361 26.7782 21.9373 25.8957 23.0826 25.2574C24.228 24.619 25.5516 24.2998 27.0537 24.2998C28.3117 24.2998 29.4382 24.5345 30.4333 25.0039C31.4472 25.4545 32.2733 26.0835 32.9117 26.8908C33.5689 27.6982 33.9913 28.6464 34.1791 29.7354L30.0954 29.7354C29.8888 29.0407 29.5133 28.5149 28.9688 28.1582C28.4431 27.8015 27.8235 27.6231 27.11 27.6231C26.4341 27.6231 25.8427 27.7921 25.3357 28.13C24.8476 28.468 24.472 28.9468 24.2092 29.5664C23.9463 30.186 23.8149 30.9182 23.8149 31.7631C23.8149 32.608 23.9463 33.3403 24.2092 33.9599C24.472 34.5795 24.8476 35.0583 25.3357 35.3962C25.8427 35.7342 26.4341 35.9032 27.11 35.9032C27.8235 35.9032 28.4431 35.7248 28.9688 35.3681C29.5133 35.0113 29.8888 34.4856 30.0954 33.7909H34.1791C33.9913 34.8799 33.5689 35.8281 32.9117 36.6354C32.2733 37.4428 31.4472 38.0811 30.4333 38.5505C29.4382 39.0012 28.3117 39.2265 27.0537 39.2265Z" fill="white"/>
<path d="M12.9024 38.9448L12.9024 24.5815H17.3773L17.3773 38.9448H12.9024ZM12.7616 22.6663V18.1039H17.5181V22.6663H12.7616Z" fill="white"/>
<path d="M8.11109 39.2546C6.27107 39.2546 4.90045 38.8134 3.99922 37.9309C3.11676 37.0297 2.67553 35.6685 2.67553 33.8472L2.67553 21.3708L6.90006 19.7936L6.90006 33.988C6.90006 34.6264 7.07843 35.1052 7.43517 35.4244C7.7919 35.7436 8.34579 35.9032 9.09681 35.9032C9.37845 35.9032 9.64131 35.875 9.88539 35.8187C10.1295 35.7623 10.3736 35.6966 10.6176 35.6215L10.6176 38.8322C10.3736 38.9636 10.0262 39.0669 9.57559 39.142C9.14375 39.2171 8.65558 39.2546 8.11109 39.2546ZM0 27.7921L0 24.5814H10.6176L10.6176 27.7921H0Z" fill="white"/>
<path d="M95.5673 45C93.5771 45 91.953 44.5775 90.695 43.7326C89.4558 42.8877 88.7236 41.7424 88.4983 40.2967H92.4975C92.6477 40.6534 92.9669 40.9257 93.455 41.1134C93.962 41.3012 94.6004 41.3951 95.3702 41.3951C96.6469 41.3951 97.5763 41.151 98.1583 40.6628C98.7404 40.1746 99.0314 39.4142 99.0314 38.3816V35.2554L99.2567 35.3117C99.069 36.3632 98.5245 37.1987 97.6232 37.8183C96.722 38.4191 95.6049 38.7195 94.2718 38.7195C92.995 38.7195 91.8779 38.4285 90.9203 37.8465C89.9815 37.2456 89.2493 36.4101 88.7236 35.3399C88.1979 34.2697 87.935 33.0117 87.935 31.566C87.935 30.1015 88.2072 28.8247 88.7517 27.7358C89.2962 26.6468 90.0566 25.8019 91.033 25.201C92.0281 24.6002 93.1828 24.2998 94.4971 24.2998C95.8489 24.2998 96.9473 24.619 97.7922 25.2574C98.6559 25.8957 99.1628 26.7688 99.3131 27.8766L99.1159 27.9047V24.5814L103.256 24.5814V38.3252C103.256 40.3906 102.571 42.0147 101.2 43.1975C99.8294 44.3992 97.9518 45 95.5673 45ZM95.7363 35.4807C96.7314 35.4807 97.5388 35.1428 98.1583 34.4668C98.7779 33.7721 99.0877 32.7864 99.0877 31.5097C99.0877 30.2329 98.7686 29.2566 98.1302 28.5807C97.5106 27.886 96.6938 27.5386 95.68 27.5386C94.7036 27.5386 93.8963 27.886 93.2579 28.5807C92.6383 29.2754 92.3285 30.2611 92.3285 31.5378C92.3285 32.8146 92.6383 33.7909 93.2579 34.4668C93.8963 35.1428 94.7224 35.4807 95.7363 35.4807Z" fill="white"/>
<path d="M114.336 38.8349C118.939 38.8349 122.67 35.1038 122.67 30.5013C122.67 25.8988 118.939 22.1678 114.336 22.1678C109.734 22.1678 106.003 25.8988 106.003 30.5013C106.003 35.1038 109.734 38.8349 114.336 38.8349Z" fill="#46D0F2"/>
<path d="M118.966 5.5007V30.5013H122.67V12.9083L132.855 15.6861V9.2045L118.966 5.5007Z" fill="#46D0F2"/>
<path d="M12.7616 4.28648V16.502H17.5213V8.31319L25.5232 7.05043L25.9632 2.42029L12.7616 4.28648Z" fill="#46D0F2"/>
<path d="M40.485 0V16.5021H36.1997V5.37039L24.203 7.2609L25.7432 2.4203L40.485 0Z" fill="#46D0F2"/>
<path d="M36.3559 12.1015L36.3559 8.80111L15.5802 11.2214L15.5802 13.6653L36.3559 12.1015Z" fill="#46D0F2"/>
</svg>
