<svg width="182" height="12" viewBox="0 0 182 12" fill="none" xmlns="http://www.w3.org/2000/svg">
<g clip-path="url(#clip0_80_35)">
<path d="M178.568 3.16C179.175 3.16 179.716 3.286 180.192 3.538C180.678 3.79 181.056 4.16334 181.326 4.658C181.597 5.15267 181.732 5.75 181.732 6.45V11H180.15V6.688C180.15 5.99734 179.978 5.47 179.632 5.106C179.287 4.73267 178.816 4.546 178.218 4.546C177.621 4.546 177.145 4.73267 176.79 5.106C176.445 5.47 176.272 5.99734 176.272 6.688V11H174.676V3.286H176.272V4.168C176.534 3.85067 176.865 3.60334 177.266 3.426C177.677 3.24867 178.111 3.16 178.568 3.16Z" fill="#46D0F2"/>
<path d="M168.255 11.126C167.527 11.126 166.869 10.9627 166.281 10.636C165.693 10.3 165.231 9.83334 164.895 9.23601C164.559 8.62934 164.391 7.92935 164.391 7.13601C164.391 6.35201 164.563 5.65668 164.909 5.05001C165.254 4.44335 165.725 3.97668 166.323 3.65001C166.92 3.32335 167.587 3.16001 168.325 3.16001C169.062 3.16001 169.729 3.32335 170.327 3.65001C170.924 3.97668 171.395 4.44335 171.741 5.05001C172.086 5.65668 172.259 6.35201 172.259 7.13601C172.259 7.92001 172.081 8.61534 171.727 9.22201C171.372 9.82868 170.887 10.3 170.271 10.636C169.664 10.9627 168.992 11.126 168.255 11.126ZM168.255 9.74001C168.665 9.74001 169.048 9.64201 169.403 9.44601C169.767 9.25001 170.061 8.95601 170.285 8.56401C170.509 8.17201 170.621 7.69601 170.621 7.13601C170.621 6.57601 170.513 6.10468 170.299 5.72201C170.084 5.33001 169.799 5.03601 169.445 4.84001C169.09 4.64401 168.707 4.54601 168.297 4.54601C167.886 4.54601 167.503 4.64401 167.149 4.84001C166.803 5.03601 166.528 5.33001 166.323 5.72201C166.117 6.10468 166.015 6.57601 166.015 7.13601C166.015 7.96668 166.225 8.61068 166.645 9.06801C167.074 9.51601 167.611 9.74001 168.255 9.74001ZM169.767 1.08801L166.673 2.61401V1.43801L169.767 -0.269989V1.08801Z" fill="#46D0F2"/>
<path d="M161.189 2.264C160.9 2.264 160.657 2.166 160.461 1.97C160.265 1.774 160.167 1.53134 160.167 1.242C160.167 0.952668 160.265 0.710002 160.461 0.514002C160.657 0.318002 160.9 0.220001 161.189 0.220001C161.469 0.220001 161.707 0.318002 161.903 0.514002C162.099 0.710002 162.197 0.952668 162.197 1.242C162.197 1.53134 162.099 1.774 161.903 1.97C161.707 2.166 161.469 2.264 161.189 2.264ZM161.973 3.286V11H160.377V3.286H161.973Z" fill="#46D0F2"/>
<path d="M154.859 11.126C154.252 11.126 153.706 11.0187 153.221 10.804C152.745 10.58 152.367 10.2813 152.087 9.908C151.807 9.52534 151.657 9.10067 151.639 8.634H153.291C153.319 8.96067 153.473 9.236 153.753 9.46C154.042 9.67467 154.401 9.782 154.831 9.782C155.279 9.782 155.624 9.698 155.867 9.53C156.119 9.35267 156.245 9.12867 156.245 8.858C156.245 8.56867 156.105 8.354 155.825 8.214C155.554 8.074 155.12 7.92 154.523 7.752C153.944 7.59334 153.473 7.43934 153.109 7.29C152.745 7.14067 152.427 6.912 152.157 6.604C151.895 6.296 151.765 5.89 151.765 5.386C151.765 4.97534 151.886 4.602 152.129 4.266C152.371 3.92067 152.717 3.65 153.165 3.454C153.622 3.258 154.145 3.16 154.733 3.16C155.61 3.16 156.315 3.384 156.847 3.832C157.388 4.27067 157.677 4.87267 157.715 5.638H156.119C156.091 5.29267 155.951 5.01734 155.699 4.812C155.447 4.60667 155.106 4.504 154.677 4.504C154.257 4.504 153.935 4.58334 153.711 4.742C153.487 4.90067 153.375 5.11067 153.375 5.372C153.375 5.57734 153.449 5.75 153.599 5.89C153.748 6.03 153.93 6.142 154.145 6.226C154.359 6.30067 154.677 6.39867 155.097 6.52C155.657 6.66934 156.114 6.82334 156.469 6.982C156.833 7.13134 157.145 7.35534 157.407 7.654C157.668 7.95267 157.803 8.34934 157.813 8.844C157.813 9.28267 157.691 9.67467 157.449 10.02C157.206 10.3653 156.861 10.636 156.413 10.832C155.974 11.028 155.456 11.126 154.859 11.126Z" fill="#46D0F2"/>
<path d="M147.442 4.406C147.675 4.014 147.983 3.71067 148.366 3.496C148.758 3.272 149.22 3.16 149.752 3.16V4.812H149.346C148.72 4.812 148.244 4.97067 147.918 5.288C147.6 5.60534 147.442 6.156 147.442 6.94V11H145.846V3.286H147.442V4.406Z" fill="#46D0F2"/>
<path d="M143.435 6.954C143.435 7.24334 143.416 7.50467 143.379 7.738H137.485C137.532 8.354 137.76 8.84867 138.171 9.222C138.582 9.59534 139.086 9.782 139.683 9.782C140.542 9.782 141.148 9.42267 141.503 8.704H143.225C142.992 9.41334 142.567 9.99667 141.951 10.454C141.344 10.902 140.588 11.126 139.683 11.126C138.946 11.126 138.283 10.9627 137.695 10.636C137.116 10.3 136.659 9.83334 136.323 9.236C135.996 8.62934 135.833 7.92934 135.833 7.136C135.833 6.34267 135.992 5.64734 136.309 5.05C136.636 4.44334 137.088 3.97667 137.667 3.65C138.255 3.32334 138.927 3.16 139.683 3.16C140.411 3.16 141.06 3.31867 141.629 3.636C142.198 3.95334 142.642 4.40134 142.959 4.98C143.276 5.54934 143.435 6.20734 143.435 6.954ZM141.769 6.45C141.76 5.862 141.55 5.39067 141.139 5.036C140.728 4.68134 140.22 4.504 139.613 4.504C139.062 4.504 138.591 4.68134 138.199 5.036C137.807 5.38134 137.574 5.85267 137.499 6.45H141.769Z" fill="#46D0F2"/>
<path d="M130.441 9.57201L132.625 3.28601H134.319L131.379 11H129.475L126.549 3.28601H128.257L130.441 9.57201Z" fill="#46D0F2"/>
<path d="M123.739 2.264C123.45 2.264 123.207 2.166 123.011 1.97C122.815 1.774 122.717 1.53134 122.717 1.242C122.717 0.952668 122.815 0.710002 123.011 0.514002C123.207 0.318002 123.45 0.220001 123.739 0.220001C124.019 0.220001 124.257 0.318002 124.453 0.514002C124.649 0.710002 124.747 0.952668 124.747 1.242C124.747 1.53134 124.649 1.774 124.453 1.97C124.257 2.166 124.019 2.264 123.739 2.264ZM124.523 3.286V11H122.927V3.286H124.523Z" fill="#46D0F2"/>
<path d="M112.067 7.10801C112.067 6.33335 112.226 5.64735 112.543 5.05001C112.87 4.45268 113.308 3.99068 113.859 3.66401C114.419 3.32801 115.04 3.16001 115.721 3.16001C116.225 3.16001 116.72 3.27201 117.205 3.49601C117.7 3.71068 118.092 4.00001 118.381 4.36401V0.640015H119.991V11H118.381V9.83801C118.12 10.2113 117.756 10.5193 117.289 10.762C116.832 11.0047 116.304 11.126 115.707 11.126C115.035 11.126 114.419 10.958 113.859 10.622C113.308 10.2767 112.87 9.80068 112.543 9.19402C112.226 8.57802 112.067 7.88268 112.067 7.10801ZM118.381 7.13601C118.381 6.60401 118.269 6.14202 118.045 5.75001C117.83 5.35801 117.546 5.05935 117.191 4.85401C116.836 4.64868 116.454 4.54601 116.043 4.54601C115.632 4.54601 115.25 4.64868 114.895 4.85401C114.54 5.05001 114.251 5.34401 114.027 5.73601C113.812 6.11868 113.705 6.57601 113.705 7.10801C113.705 7.64001 113.812 8.10668 114.027 8.50802C114.251 8.90935 114.54 9.21735 114.895 9.43201C115.259 9.63735 115.642 9.74002 116.043 9.74002C116.454 9.74002 116.836 9.63735 117.191 9.43201C117.546 9.22668 117.83 8.92802 118.045 8.53602C118.269 8.13468 118.381 7.66801 118.381 7.13601Z" fill="#46D0F2"/>
<path d="M97.262 7.108C97.262 6.33334 97.4206 5.64734 97.738 5.05C98.0646 4.45267 98.5033 3.99067 99.054 3.664C99.614 3.328 100.23 3.16 100.902 3.16C101.509 3.16 102.036 3.28134 102.484 3.524C102.941 3.75734 103.305 4.05134 103.576 4.406V3.286H105.186V11H103.576V9.852C103.305 10.216 102.937 10.5193 102.47 10.762C102.003 11.0047 101.471 11.126 100.874 11.126C100.211 11.126 99.6046 10.958 99.054 10.622C98.5033 10.2767 98.0646 9.80067 97.738 9.194C97.4206 8.578 97.262 7.88267 97.262 7.108ZM103.576 7.136C103.576 6.604 103.464 6.142 103.24 5.75C103.025 5.358 102.741 5.05934 102.386 4.854C102.031 4.64867 101.649 4.546 101.238 4.546C100.827 4.546 100.445 4.64867 100.09 4.854C99.7353 5.05 99.446 5.344 99.222 5.736C99.0073 6.11867 98.9 6.576 98.9 7.108C98.9 7.64 99.0073 8.10667 99.222 8.508C99.446 8.90934 99.7353 9.21734 100.09 9.432C100.454 9.63734 100.837 9.74 101.238 9.74C101.649 9.74 102.031 9.63734 102.386 9.432C102.741 9.22667 103.025 8.928 103.24 8.536C103.464 8.13467 103.576 7.668 103.576 7.136Z" fill="#46D0F2"/>
<path d="M94.8586 0.640015V11H93.2626V0.640015H94.8586Z" fill="#46D0F2"/>
<path d="M77.9256 7.108C77.9256 6.33334 78.0843 5.64734 78.4016 5.05C78.7283 4.45267 79.1669 3.99067 79.7176 3.664C80.2776 3.328 80.8936 3.16 81.5656 3.16C82.1723 3.16 82.6996 3.28134 83.1476 3.524C83.6049 3.75734 83.9689 4.05134 84.2396 4.406V3.286H85.8496V11H84.2396V9.852C83.9689 10.216 83.6003 10.5193 83.1336 10.762C82.6669 11.0047 82.1349 11.126 81.5376 11.126C80.8749 11.126 80.2683 10.958 79.7176 10.622C79.1669 10.2767 78.7283 9.80067 78.4016 9.194C78.0843 8.578 77.9256 7.88267 77.9256 7.108ZM84.2396 7.136C84.2396 6.604 84.1276 6.142 83.9036 5.75C83.6889 5.358 83.4043 5.05934 83.0496 4.854C82.6949 4.64867 82.3123 4.546 81.9016 4.546C81.4909 4.546 81.1083 4.64867 80.7536 4.854C80.3989 5.05 80.1096 5.344 79.8856 5.736C79.6709 6.11867 79.5636 6.576 79.5636 7.108C79.5636 7.64 79.6709 8.10667 79.8856 8.508C80.1096 8.90934 80.3989 9.21734 80.7536 9.432C81.1176 9.63734 81.5003 9.74 81.9016 9.74C82.3123 9.74 82.6949 9.63734 83.0496 9.432C83.4043 9.22667 83.6889 8.928 83.9036 8.536C84.1276 8.13467 84.2396 7.668 84.2396 7.136Z" fill="#46D0F2"/>
<path d="M67.5591 11.126C66.8311 11.126 66.1731 10.9627 65.5851 10.636C64.9971 10.3 64.5351 9.83334 64.1991 9.236C63.8631 8.62934 63.6951 7.92934 63.6951 7.136C63.6951 6.352 63.8678 5.65667 64.2131 5.05C64.5585 4.44334 65.0298 3.97667 65.6271 3.65C66.2245 3.32334 66.8918 3.16 67.6291 3.16C68.3665 3.16 69.0338 3.32334 69.6311 3.65C70.2285 3.97667 70.6998 4.44334 71.0451 5.05C71.3905 5.65667 71.5631 6.352 71.5631 7.136C71.5631 7.92 71.3858 8.61534 71.0311 9.222C70.6765 9.82867 70.1911 10.3 69.5751 10.636C68.9685 10.9627 68.2965 11.126 67.5591 11.126ZM67.5591 9.74C67.9698 9.74 68.3525 9.642 68.7071 9.446C69.0711 9.25 69.3651 8.956 69.5891 8.564C69.8131 8.172 69.9251 7.696 69.9251 7.136C69.9251 6.576 69.8178 6.10467 69.6031 5.722C69.3885 5.33 69.1038 5.036 68.7491 4.84C68.3945 4.644 68.0118 4.546 67.6011 4.546C67.1905 4.546 66.8078 4.644 66.4531 4.84C66.1078 5.036 65.8325 5.33 65.6271 5.722C65.4218 6.10467 65.3191 6.576 65.3191 7.136C65.3191 7.96667 65.5291 8.61067 65.9491 9.068C66.3785 9.516 66.9151 9.74 67.5591 9.74Z" fill="#46D0F2"/>
<path d="M60.0262 4.58801V8.85801C60.0262 9.14735 60.0915 9.35735 60.2222 9.48801C60.3622 9.60935 60.5955 9.67001 60.9222 9.67001H61.9022V11H60.6422C59.9235 11 59.3728 10.832 58.9902 10.496C58.6075 10.16 58.4162 9.61401 58.4162 8.85801V4.58801H57.5062V3.28601H58.4162V1.36801H60.0262V3.28601H61.9022V4.58801H60.0262Z" fill="#46D0F2"/>
<path d="M55.7535 6.954C55.7535 7.24334 55.7348 7.50467 55.6975 7.738H49.8035C49.8502 8.354 50.0788 8.84867 50.4895 9.222C50.9002 9.59534 51.4042 9.782 52.0015 9.782C52.8602 9.782 53.4668 9.42267 53.8215 8.704H55.5435C55.3102 9.41334 54.8855 9.99667 54.2695 10.454C53.6628 10.902 52.9068 11.126 52.0015 11.126C51.2642 11.126 50.6015 10.9627 50.0135 10.636C49.4348 10.3 48.9775 9.83334 48.6415 9.236C48.3148 8.62934 48.1515 7.92934 48.1515 7.136C48.1515 6.34267 48.3102 5.64734 48.6275 5.05C48.9542 4.44334 49.4068 3.97667 49.9855 3.65C50.5735 3.32334 51.2455 3.16 52.0015 3.16C52.7295 3.16 53.3782 3.31867 53.9475 3.636C54.5168 3.95334 54.9602 4.40134 55.2775 4.98C55.5948 5.54934 55.7535 6.20734 55.7535 6.954ZM54.0875 6.45C54.0782 5.862 53.8682 5.39067 53.4575 5.036C53.0468 4.68134 52.5382 4.504 51.9315 4.504C51.3808 4.504 50.9095 4.68134 50.5175 5.036C50.1255 5.38134 49.8922 5.85267 49.8175 6.45H54.0875Z" fill="#46D0F2"/>
<path d="M45.7481 0.640015V11H44.1521V0.640015H45.7481Z" fill="#46D0F2"/>
<path d="M37.7304 11.126C37.0024 11.126 36.3444 10.9627 35.7564 10.636C35.1684 10.3 34.7064 9.83334 34.3704 9.236C34.0344 8.62934 33.8664 7.92934 33.8664 7.136C33.8664 6.352 34.0391 5.65667 34.3844 5.05C34.7297 4.44334 35.2011 3.97667 35.7984 3.65C36.3957 3.32334 37.0631 3.16 37.8004 3.16C38.5377 3.16 39.2051 3.32334 39.8024 3.65C40.3997 3.97667 40.8711 4.44334 41.2164 5.05C41.5617 5.65667 41.7344 6.352 41.7344 7.136C41.7344 7.92 41.5571 8.61534 41.2024 9.222C40.8477 9.82867 40.3624 10.3 39.7464 10.636C39.1397 10.9627 38.4677 11.126 37.7304 11.126ZM37.7304 9.74C38.1411 9.74 38.5237 9.642 38.8784 9.446C39.2424 9.25 39.5364 8.956 39.7604 8.564C39.9844 8.172 40.0964 7.696 40.0964 7.136C40.0964 6.576 39.9891 6.10467 39.7744 5.722C39.5597 5.33 39.2751 5.036 38.9204 4.84C38.5657 4.644 38.1831 4.546 37.7724 4.546C37.3617 4.546 36.9791 4.644 36.6244 4.84C36.2791 5.036 36.0037 5.33 35.7984 5.722C35.5931 6.10467 35.4904 6.576 35.4904 7.136C35.4904 7.96667 35.7004 8.61067 36.1204 9.068C36.5497 9.516 37.0864 9.74 37.7304 9.74Z" fill="#46D0F2"/>
<path d="M25.6521 4.43401C25.9228 4.06068 26.2914 3.75735 26.7581 3.52401C27.2341 3.28135 27.7614 3.16001 28.3401 3.16001C29.0214 3.16001 29.6374 3.32335 30.1881 3.65001C30.7388 3.97668 31.1728 4.44335 31.4901 5.05001C31.8074 5.64735 31.9661 6.33335 31.9661 7.10801C31.9661 7.88268 31.8074 8.57802 31.4901 9.19402C31.1728 9.80068 30.7341 10.2767 30.1741 10.622C29.6234 10.958 29.0121 11.126 28.3401 11.126C27.7428 11.126 27.2108 11.0093 26.7441 10.776C26.2868 10.5427 25.9228 10.244 25.6521 9.88001V11H24.0561V0.640015H25.6521V4.43401ZM30.3421 7.10801C30.3421 6.57601 30.2301 6.11868 30.0061 5.73601C29.7914 5.34401 29.5021 5.05001 29.1381 4.85401C28.7834 4.64868 28.4008 4.54601 27.9901 4.54601C27.5888 4.54601 27.2061 4.64868 26.8421 4.85401C26.4874 5.05935 26.1981 5.35801 25.9741 5.75001C25.7594 6.14202 25.6521 6.60401 25.6521 7.13601C25.6521 7.66801 25.7594 8.13468 25.9741 8.53602C26.1981 8.92802 26.4874 9.22668 26.8421 9.43201C27.2061 9.63735 27.5888 9.74002 27.9901 9.74002C28.4008 9.74002 28.7834 9.63735 29.1381 9.43201C29.5021 9.21735 29.7914 8.90935 30.0061 8.50802C30.2301 8.10668 30.3421 7.64001 30.3421 7.10801Z" fill="#46D0F2"/>
<path d="M16.6336 3.28601V11H15.0376V10.09C14.7856 10.4073 14.4542 10.6593 14.0436 10.846C13.6422 11.0233 13.2129 11.112 12.7556 11.112C12.1489 11.112 11.6029 10.986 11.1176 10.734C10.6416 10.482 10.2636 10.1087 9.98358 9.61401C9.71291 9.11934 9.57758 8.52201 9.57758 7.82201V3.28601H11.1596V7.58401C11.1596 8.27468 11.3322 8.80668 11.6776 9.18001C12.0229 9.54401 12.4942 9.72601 13.0916 9.72601C13.6889 9.72601 14.1602 9.54401 14.5056 9.18001C14.8602 8.80668 15.0376 8.27468 15.0376 7.58401V3.28601H16.6336Z" fill="#46D0F2"/>
<path d="M7.19125 1.27002V2.57202H4.60125V11H3.00525V2.57202H0.401245V1.27002H7.19125Z" fill="#46D0F2"/>
</g>
<defs>
<clipPath id="clip0_80_35">
<rect width="182" height="12" fill="white"/>
</clipPath>
</defs>
</svg>
