<svg width="32" height="32" viewBox="0 0 32 32" fill="none" xmlns="http://www.w3.org/2000/svg">
<path d="M6.86625 30.3771C7.56225 30.3771 7.96454 30.0285 9.31711 28.6765L15.8125 22.1942C15.8794 22.1405 15.9463 22.0868 16 22.0868C16.0668 22.0868 16.12 22.1405 16.1874 22.1942L22.696 28.6765C24.0222 30.0022 24.4508 30.3771 25.1337 30.3771C25.9777 30.3771 26.6205 29.8685 26.6205 28.6497V5.8148C26.6205 3.02909 25.2411 1.6228 22.4685 1.6228H9.53139C6.77254 1.6228 5.37939 3.02852 5.37939 5.8148V28.6491C5.37939 29.8685 6.03597 30.3771 6.86625 30.3771ZM7.87025 27.1228C7.68282 27.3102 7.53597 27.2565 7.53597 27.0022V5.8548C7.53597 4.51537 8.25882 3.7788 9.65197 3.7788H22.3617C23.7542 3.7788 24.4645 4.51595 24.4645 5.8548V27.0022C24.4645 27.2565 24.3171 27.2971 24.1291 27.1222L16.6703 19.7439C16.4423 19.5028 16.2017 19.4354 16.0005 19.4354C15.8131 19.4354 15.572 19.5028 15.3308 19.7439L7.87025 27.1228Z" fill="#F7AA00"/>
</svg>
