<svg width="24" height="24" viewBox="0 0 24 24" fill="none" xmlns="http://www.w3.org/2000/svg">
<path d="M12 3.001C10.1435 3.001 8.36301 3.7385 7.05025 5.05125C5.7375 6.36401 5 8.14448 5 10.001C5 12.863 6.782 15.624 8.738 17.763C9.73814 18.8526 10.8294 19.8549 12 20.759C12.1747 20.625 12.3797 20.4617 12.615 20.269C13.5548 19.4973 14.4393 18.6605 15.262 17.765C17.218 15.624 19 12.864 19 10.001C19 8.14448 18.2625 6.36401 16.9497 5.05125C15.637 3.7385 13.8565 3.001 12 3.001ZM12 23.215L11.433 22.825L11.43 22.823L11.424 22.818L11.404 22.804L11.329 22.751L11.059 22.554C9.69086 21.5258 8.41988 20.3743 7.262 19.114C5.218 16.876 3 13.637 3 10C3 7.61305 3.94821 5.32387 5.63604 3.63604C7.32387 1.94821 9.61305 1 12 1C14.3869 1 16.6761 1.94821 18.364 3.63604C20.0518 5.32387 21 7.61305 21 10C21 13.637 18.782 16.877 16.738 19.112C15.5804 20.3722 14.3098 21.5237 12.942 22.552C12.8281 22.6371 12.713 22.7208 12.597 22.803L12.576 22.817L12.57 22.822L12.568 22.823L12 23.215ZM12 8.001C11.4696 8.001 10.9609 8.21171 10.5858 8.58679C10.2107 8.96186 10 9.47057 10 10.001C10 10.5314 10.2107 11.0401 10.5858 11.4152C10.9609 11.7903 11.4696 12.001 12 12.001C12.5304 12.001 13.0391 11.7903 13.4142 11.4152C13.7893 11.0401 14 10.5314 14 10.001C14 9.47057 13.7893 8.96186 13.4142 8.58679C13.0391 8.21171 12.5304 8.001 12 8.001ZM8 10.001C8 8.94013 8.42143 7.92272 9.17157 7.17257C9.92172 6.42243 10.9391 6.001 12 6.001C13.0609 6.001 14.0783 6.42243 14.8284 7.17257C15.5786 7.92272 16 8.94013 16 10.001C16 11.0619 15.5786 12.0793 14.8284 12.8294C14.0783 13.5796 13.0609 14.001 12 14.001C10.9391 14.001 9.92172 13.5796 9.17157 12.8294C8.42143 12.0793 8 11.0619 8 10.001Z" fill="#F7AA00"/>
</svg>
