<svg width="24" height="24" viewBox="0 0 24 24" fill="none" xmlns="http://www.w3.org/2000/svg">
<g clip-path="url(#clip0_448_404)">
<path d="M0.339844 13.0977C0.113281 13.5977 0 14.1172 0 14.6562V15.5C0 16.0938 0.160156 16.6367 0.480469 17.1289C0.800781 17.6211 1.23047 17.9883 1.76953 18.2305C2.01172 18.7695 2.37891 19.1992 2.87109 19.5195C3.36328 19.8398 3.90625 20 4.5 20C5.03906 20 5.53906 19.8672 6 19.6016C6.46094 19.3359 6.82812 18.9688 7.10156 18.5H15.3984C15.6719 18.9688 16.0391 19.3359 16.5 19.6016C16.9609 19.8672 17.4609 20 18 20C18.5391 20 19.0391 19.8672 19.5 19.6016C19.9609 19.3359 20.3281 18.9688 20.6016 18.5H22.5C22.7109 18.5 22.9062 18.4609 23.0859 18.3828C23.2656 18.3047 23.4219 18.1992 23.5547 18.0664C23.6875 17.9336 23.7969 17.7734 23.8828 17.5859C23.9688 17.3984 24.0078 17.2031 24 17V14C24 13.375 23.8828 12.7891 23.6484 12.2422C23.4141 11.6953 23.0938 11.2188 22.6875 10.8125C22.2812 10.4062 21.8047 10.0859 21.2578 9.85156C20.7109 9.61719 20.125 9.5 19.5 9.5H19.0664L15.2227 5.65625C15.0117 5.44531 14.7695 5.28516 14.4961 5.17578C14.2227 5.06641 13.9336 5.00781 13.6289 5H3V6.5H3.33984L0.339844 13.0977ZM9 6.5V9.5H3.62109L4.78125 6.93359C4.84375 6.80078 4.9375 6.69531 5.0625 6.61719C5.1875 6.53906 5.32422 6.5 5.47266 6.5H9ZM13.6289 6.5C13.832 6.5 14.0078 6.57422 14.1562 6.72266L16.9336 9.5H10.5V6.5H13.6289ZM18 18.5C17.7891 18.5 17.5938 18.4609 17.4141 18.3828C17.2344 18.3047 17.0781 18.1992 16.9453 18.0664C16.8125 17.9336 16.7031 17.7734 16.6172 17.5859C16.5312 17.3984 16.4922 17.2031 16.5 17C16.5 16.7891 16.5391 16.5938 16.6172 16.4141C16.6953 16.2344 16.8008 16.0781 16.9336 15.9453C17.0664 15.8125 17.2266 15.7031 17.4141 15.6172C17.6016 15.5312 17.7969 15.4922 18 15.5C18.2109 15.5 18.4062 15.5391 18.5859 15.6172C18.7656 15.6953 18.9219 15.8008 19.0547 15.9336C19.1875 16.0664 19.2969 16.2266 19.3828 16.4141C19.4688 16.6016 19.5078 16.7969 19.5 17C19.5 17.2109 19.4609 17.4062 19.3828 17.5859C19.3047 17.7656 19.1992 17.9219 19.0664 18.0547C18.9336 18.1875 18.7734 18.2969 18.5859 18.3828C18.3984 18.4688 18.2031 18.5078 18 18.5ZM18 14C17.5859 14 17.1992 14.0781 16.8398 14.2344C16.4805 14.3906 16.1602 14.6055 15.8789 14.8789C15.5977 15.1523 15.3828 15.4688 15.2344 15.8281C15.0859 16.1875 15.0078 16.5781 15 17H10.5V11H19.5C19.9141 11 20.3008 11.0781 20.6602 11.2344C21.0195 11.3906 21.3398 11.6055 21.6211 11.8789C21.9023 12.1523 22.1172 12.4688 22.2656 12.8281C22.4141 13.1875 22.4922 13.5781 22.5 14V17H21C21 16.5859 20.9219 16.1992 20.7656 15.8398C20.6094 15.4805 20.3945 15.1602 20.1211 14.8789C19.8477 14.5977 19.5312 14.3828 19.1719 14.2344C18.8125 14.0859 18.4219 14.0078 18 14ZM4.5 18.5C4.28906 18.5 4.09375 18.4609 3.91406 18.3828C3.73438 18.3047 3.57812 18.1992 3.44531 18.0664C3.3125 17.9336 3.20312 17.7734 3.11719 17.5859C3.03125 17.3984 2.99219 17.2031 3 17C3 16.7891 3.03906 16.5938 3.11719 16.4141C3.19531 16.2344 3.30078 16.0781 3.43359 15.9453C3.56641 15.8125 3.72656 15.7031 3.91406 15.6172C4.10156 15.5312 4.29688 15.4922 4.5 15.5C4.71094 15.5 4.90625 15.5391 5.08594 15.6172C5.26562 15.6953 5.42188 15.8008 5.55469 15.9336C5.6875 16.0664 5.79688 16.2266 5.88281 16.4141C5.96875 16.6016 6.00781 16.7969 6 17C6 17.2109 5.96094 17.4062 5.88281 17.5859C5.80469 17.7656 5.69922 17.9219 5.56641 18.0547C5.43359 18.1875 5.27344 18.2969 5.08594 18.3828C4.89844 18.4688 4.70312 18.5078 4.5 18.5ZM1.5 14.6562C1.5 14.3359 1.56641 14.0234 1.69922 13.7188L2.94141 11H9V17H7.5C7.5 16.5859 7.42188 16.1992 7.26562 15.8398C7.10938 15.4805 6.89453 15.1602 6.62109 14.8789C6.34766 14.5977 6.03125 14.3828 5.67188 14.2344C5.3125 14.0859 4.92188 14.0078 4.5 14C4.17188 14 3.85547 14.0508 3.55078 14.1523C3.24609 14.2539 2.96875 14.3984 2.71875 14.5859C2.46875 14.7734 2.25 14.9961 2.0625 15.2539C1.875 15.5117 1.73047 15.8008 1.62891 16.1211C1.54297 15.9102 1.5 15.7031 1.5 15.5V14.6562Z" fill="#46D0F2"/>
</g>
<defs>
<clipPath id="clip0_448_404">
<rect width="24" height="24" fill="white" transform="matrix(-1 0 0 1 24 0)"/>
</clipPath>
</defs>
</svg>
