<svg width="24" height="24" viewBox="0 0 24 24" fill="none" xmlns="http://www.w3.org/2000/svg">
<path d="M7 5.00012L3 7.00012V3.00012L7 5.00012ZM18 3.00012V7.00012L22 5.00012L18 3.00012ZM11 2.00012V6.00012L15 4.00012L11 2.00012ZM13 18.0001H11V22.0001C5.9 21.9001 2 20.6001 2 19.0001V10.0001C2 8.30012 6.5 7.00012 12 7.00012C17.5 7.00012 22 8.30012 22 10.0001V19.0001C22 20.6001 18 21.9001 13 22.0001V18.0001ZM5 10.0001C6.4 10.5001 8.8 11.0001 12 11.0001C15.2 11.0001 17.6 10.5001 19 10.0001C19 9.80012 16.2 9.00012 12 9.00012C7.8 9.00012 5 9.90012 5 10.0001ZM20 11.8001C18.2 12.5001 15.3 13.0001 12 13.0001C8.7 13.0001 5.8 12.5001 4 11.8001V18.6001C4.6 19.0001 6.4 19.6001 9 19.9001V16.0001H15V19.9001C17.6 19.6001 19.4 19.0001 20 18.6001V11.8001Z" fill="#F7AA00"/>
</svg>
